<svg xmlns="http://www.w3.org/2000/svg" viewBox="0 0 327.53 232.72"><defs><style>.cls-1{fill:#ededed;}.cls-2{fill:#d6d6d6;}.cls-2,.cls-3{stroke:#7a7a7a;stroke-miterlimit:10;}.cls-3,.cls-5{fill:#a6dbed;}.cls-4,.cls-8{fill:#fff;}.cls-6{fill:#8d8c8d;}.cls-7{fill:#434343;}.cls-8{opacity:0.47;}</style></defs><g id="Camada_10" data-name="Camada 10"><path class="cls-1" d="M135,42C94.2,57.71,79.69,46.79,54,61.5c-19.15,11-40.26,33.72-39.75,59.25.46,23.17,18.57,39.8,27.75,48,58.77,52.47,198.11,74.85,264.75-.75,24.38-27.66,46.38-76.77,28.5-112.5-24-47.94-112.42-57-162.75-33C159.47,28.71,154.75,34.4,135,42Z" transform="translate(-14.24 -9.7)"/></g><g id="Camada_8" data-name="Camada 8"><rect class="cls-2" x="147.32" y="53.14" width="154.06" height="100.75" rx="3.04" transform="matrix(0.99, 0.15, -0.15, 0.99, 4.25, -42.82)"/><rect class="cls-2" x="128.07" y="163.11" width="172.88" height="5" rx="0.67" transform="translate(13.64 -40.58) rotate(8.8)"/><path class="cls-2" d="M299.65,176.27,130.21,150l10.8-8.45L291.91,165Z" transform="translate(-14.24 -9.7)"/></g><g id="Camada_7" data-name="Camada 7"><rect class="cls-3" x="151.93" y="57.51" width="144.84" height="92.01" rx="3.04" transform="translate(4.25 -42.82) rotate(8.8)"/></g><g id="Camada_3" data-name="Camada 3"><path class="cls-4" d="M296.93,104.81l-8,51.87a2.89,2.89,0,0,1-3.4,2.27L149.34,137.86a2.9,2.9,0,0,1-2.56-3.19l7.14-46.11a125.78,125.78,0,0,1,40.69,1c26.14,5,36,16,59.95,19.11C264.29,110,278.64,110.27,296.93,104.81Z" transform="translate(-14.24 -9.7)"/></g><g id="Camada_9" data-name="Camada 9"><circle class="cls-5" cx="221.89" cy="111.43" r="8.67"/><circle class="cls-5" cx="251.54" cy="116.02" r="8.67"/><circle class="cls-5" cx="162.6" cy="102.24" r="8.67"/><circle class="cls-5" cx="192.25" cy="106.83" r="8.67"/><rect class="cls-6" x="167.36" y="124.18" width="15.05" height="0.84" rx="0.42" transform="translate(6.89 -35) rotate(8.8)"/><rect class="cls-6" x="168.62" y="126.15" width="11.91" height="0.84" rx="0.42" transform="translate(7.19 -34.93) rotate(8.8)"/><rect class="cls-6" x="197" y="128.77" width="15.05" height="0.84" rx="0.42" transform="translate(7.94 -39.48) rotate(8.8)"/><rect class="cls-6" x="198.27" y="130.75" width="11.91" height="0.84" rx="0.42" transform="matrix(0.99, 0.15, -0.15, 0.99, 8.24, -39.41)"/><rect class="cls-6" x="226.65" y="133.36" width="15.05" height="0.84" rx="0.42" transform="translate(9 -43.96) rotate(8.8)"/><rect class="cls-6" x="227.91" y="135.34" width="11.91" height="0.84" rx="0.42" transform="translate(9.29 -43.89) rotate(8.8)"/><rect class="cls-6" x="256.3" y="137.95" width="15.05" height="0.84" rx="0.42" transform="translate(10.05 -48.45) rotate(8.8)"/><rect class="cls-6" x="257.56" y="139.93" width="11.91" height="0.84" rx="0.42" transform="translate(10.35 -48.38) rotate(8.8)"/></g><g id="Camada_5" data-name="Camada 5"><rect class="cls-7" x="173.73" y="67.98" width="25.56" height="1.25" rx="0.62" transform="translate(-1.54 -37.44) rotate(8.8)"/><path class="cls-7" d="M173.74,71.93h24.31a.62.62,0,0,1,.62.62v0a.62.62,0,0,1-.62.62H173.74a.63.63,0,0,1-.63-.63v0a.62.62,0,0,1,.62-.62Z" transform="translate(-0.94 -37.3) rotate(8.8)"/><path class="cls-7" d="M173.13,75.89h24.31a.63.63,0,0,1,.63.63v0a.62.62,0,0,1-.62.62H173.13a.62.62,0,0,1-.62-.62v0a.62.62,0,0,1,.62-.62Z" transform="translate(-0.35 -37.16) rotate(8.8)"/><rect class="cls-2" x="41.78" y="33.26" width="68.77" height="100.75" rx="3.04" transform="translate(-27.47 4.63) rotate(-9.89)"/><rect class="cls-3" x="46.03" y="37.58" width="60.76" height="92.01" rx="3.04" transform="matrix(0.99, -0.17, 0.17, 0.99, -27.46, 4.67)"/><path class="cls-4" d="M104.06,68.79,110.84,107,52,117.24,46.07,83.06a50.52,50.52,0,0,1,15.41-5.92c11-2.23,16.74.5,27.32-1.86A46.39,46.39,0,0,0,104.06,68.79Z" transform="translate(-14.24 -9.7)"/><ellipse class="cls-5" cx="83.95" cy="91.79" rx="3.64" ry="3.9" transform="translate(-28.76 6.09) rotate(-9.89)"/><ellipse class="cls-5" cx="96.35" cy="89.63" rx="3.64" ry="3.9" transform="translate(-28.2 8.19) rotate(-9.89)"/><ellipse class="cls-5" cx="59.15" cy="96.11" rx="3.64" ry="3.9" transform="translate(-29.87 1.89) rotate(-9.89)"/><ellipse class="cls-5" cx="71.55" cy="93.95" rx="3.64" ry="3.9" transform="translate(-29.32 3.99) rotate(-9.89)"/><rect class="cls-6" x="57.38" y="103.61" width="6.31" height="0.84" rx="0.42" transform="translate(-31.21 2.25) rotate(-9.89)"/><rect class="cls-6" x="58.38" y="105.58" width="5" height="0.84" rx="0.42" transform="translate(-31.54 2.34) rotate(-9.89)"/><rect class="cls-6" x="69.77" y="101.45" width="6.31" height="0.84" rx="0.42" transform="translate(-30.66 4.35) rotate(-9.89)"/><rect class="cls-6" x="70.77" y="103.42" width="5" height="0.84" rx="0.42" transform="translate(-30.99 4.43) rotate(-9.89)"/><rect class="cls-6" x="82.17" y="99.28" width="6.31" height="0.84" rx="0.42" transform="translate(-30.1 6.44) rotate(-9.89)"/><rect class="cls-6" x="83.17" y="101.25" width="5" height="0.84" rx="0.42" transform="translate(-30.43 6.53) rotate(-9.89)"/><rect class="cls-6" x="94.57" y="97.12" width="6.31" height="0.84" rx="0.42" transform="translate(-29.54 8.54) rotate(-9.89)"/><rect class="cls-6" x="95.57" y="99.09" width="5" height="0.84" rx="0.42" transform="translate(-29.88 8.63) rotate(-9.89)"/><rect class="cls-7" x="48.4" y="57.15" width="17.87" height="1.25" rx="0.62" transform="translate(-23.31 1.01) rotate(-9.89)"/><path class="cls-7" d="M49.72,61.09H66.34a.63.63,0,0,1,.63.63v0a.62.62,0,0,1-.62.62H49.72a.62.62,0,0,1-.62-.62v0A.62.62,0,0,1,49.72,61.09Z" transform="translate(-23.98 1.19) rotate(-9.89)"/><path class="cls-7" d="M50.4,65H67a.63.63,0,0,1,.63.63v0a.62.62,0,0,1-.62.62H50.4a.62.62,0,0,1-.62-.62v0A.62.62,0,0,1,50.4,65Z" transform="translate(-24.65 1.36) rotate(-9.89)"/><rect class="cls-2" x="53.64" y="156.21" width="42.76" height="76.01" rx="3.04"/><rect class="cls-3" x="56.28" y="159.51" width="37.79" height="69.42" rx="3.04"/><path class="cls-4" d="M107.75,213.56l.06,22.35a2.48,2.48,0,0,1-.61,1.32,2.64,2.64,0,0,1-1.72.86H73.34a2.44,2.44,0,0,1-1.41-.54,2.86,2.86,0,0,1-.89-1.81c-.25-1.58-.28-9.21,0-19.61a30.45,30.45,0,0,1,9.89-2c6.92-.22,10.1,2.13,16.85,1.81A28.27,28.27,0,0,0,107.75,213.56Z" transform="translate(-14.24 -9.7)"/><ellipse class="cls-5" cx="69.12" cy="215.96" rx="3.64" ry="3.9"/><ellipse class="cls-5" cx="81.7" cy="215.96" rx="3.64" ry="3.9"/><rect class="cls-6" x="65.96" y="223.57" width="6.31" height="0.84" rx="0.42"/><rect class="cls-6" x="66.62" y="225.57" width="5" height="0.84" rx="0.42"/><rect class="cls-6" x="78.55" y="223.57" width="6.31" height="0.84" rx="0.42"/><rect class="cls-6" x="79.2" y="225.57" width="5" height="0.84" rx="0.42"/><rect class="cls-7" x="66.98" y="167.25" width="17.87" height="1.25" rx="0.62"/><path class="cls-7" d="M67.61,171.25H84.23a.63.63,0,0,1,.63.63v0a.62.62,0,0,1-.62.62H67.61a.62.62,0,0,1-.62-.62v0a.62.62,0,0,1,.62-.62Z"/><rect class="cls-7" x="66.98" y="175.25" width="17.87" height="1.25" rx="0.62"/><circle class="cls-8" cx="69.91" cy="47.09" r="7.74"/><circle class="cls-8" cx="75.18" cy="189.47" r="7.74"/><circle class="cls-8" cx="239.47" cy="75.6" r="16.4"/></g></svg>