<svg xmlns="http://www.w3.org/2000/svg" viewBox="0 0 512.15 327.89"><defs><style>.cls-1,.cls-10,.cls-11,.cls-13,.cls-14,.cls-15,.cls-3,.cls-32,.cls-33,.cls-34,.cls-39,.cls-43{fill:none;stroke-miterlimit:10;}.cls-1,.cls-14,.cls-15,.cls-3,.cls-34,.cls-39{stroke:#c9c9c9;}.cls-1{stroke-width:0.76px;}.cls-2{fill:#c5e7ed;}.cls-13,.cls-3{stroke-width:0.86px;}.cls-4{fill:#a6dbed;}.cls-5{fill:#1e2d64;}.cls-6{fill:#fff;}.cls-7{fill:#8cc4d1;}.cls-8{fill:#6c9baa;opacity:0.4;}.cls-9{fill:#d2afff;}.cls-10,.cls-11{stroke:#fff;}.cls-10,.cls-11,.cls-15,.cls-32,.cls-33,.cls-34{stroke-linecap:round;}.cls-10{stroke-width:2.8px;}.cls-11{stroke-width:1.87px;}.cls-12{fill:#0f1446;}.cls-13{stroke:#d2afff;}.cls-14,.cls-15{stroke-width:1.73px;}.cls-16{fill:#fa968c;}.cls-17{fill:#fa870a;}.cls-18{fill:#fab9af;}.cls-19{fill:#46738c;}.cls-20{fill:#1c9585;}.cls-21{fill:#177d74;}.cls-22{fill:#39ae96;}.cls-23{fill:#ffa50a;}.cls-24{fill:#3c5a73;}.cls-25{fill:#ffa0be;}.cls-26{fill:#f57a2f;}.cls-27{fill:#0091c8;}.cls-28{fill:#0073aa;}.cls-29{fill:#00558c;}.cls-30{fill:#ff8c46;}.cls-31{fill:#ff82aa;}.cls-32{stroke:#41b4e6;}.cls-32,.cls-33,.cls-34,.cls-39{stroke-width:1.3px;}.cls-33{stroke:#a8e5ff;}.cls-35{fill:#41b4e6;}.cls-36{fill:#aac85a;}.cls-37{fill:#82be50;}.cls-38{fill:#a56941;}.cls-40{fill:#fff0f2;}.cls-41{fill:#965028;}.cls-42{fill:#eb7731;}.cls-43{stroke:#a6dbed;stroke-width:2px;}</style></defs><g id="BACKGROUND"><path class="cls-1" d="M130.56,314.43l-1.38,0a19.83,19.83,0,0,0,.59-4.76c0-12.26-11.38-22.2-25.42-22.2-13.85,0-25.1,9.67-25.41,21.7-10.44,4.69-17.65,14.73-17.65,26.35,0,16.12,13.88,29.19,31,29.19a32.07,32.07,0,0,0,19.53-6.54,34.18,34.18,0,0,0,18.75,5.41c16.56,0,30-11,30-24.59S147.12,314.43,130.56,314.43Z" transform="translate(60.4 -81.02)"/><line class="cls-1" x1="172.18" y1="245.09" x2="172.18" y2="309.76"/><polyline class="cls-1" points="142.41 254.79 172.18 269.3 196.67 255.6"/><polyline class="cls-1" points="158.29 229.11 172.18 254.79 183.43 243.8"/><path class="cls-2" d="M125.3,184h0a2.12,2.12,0,0,1-2-2.86,8.35,8.35,0,0,0,.33-4.09,8.46,8.46,0,0,0-8.42-6.91H70a8.47,8.47,0,0,0-8.44,7,8.33,8.33,0,0,0,8.21,9.69h.5a6,6,0,0,1,6,6.17V193h0a9,9,0,0,0,9,9h40a9,9,0,0,0,9-9h0A9,9,0,0,0,125.3,184Z" transform="translate(60.4 -81.02)"/><path class="cls-2" d="M5.76,246.4h0a2.13,2.13,0,0,1-2-2.87,8.33,8.33,0,0,0,.32-4.09,8.44,8.44,0,0,0-8.42-6.9H-49.51a8.45,8.45,0,0,0-8.44,7,8.31,8.31,0,0,0,8.21,9.68h.5a6,6,0,0,1,6,6.17v.07h0a9,9,0,0,0,9,9h40a9,9,0,0,0,9-9h0A9,9,0,0,0,5.76,246.4Z" transform="translate(60.4 -81.02)"/><path class="cls-3" d="M433.64,306.6c-1.19-1.18-3.77-1.18-6.67-.67a4.82,4.82,0,0,1-4.92-7.28c4.6-7.47,9.2-16.33,6.82-18.71-2.21-2.22-10.9.57-16.7,2.79a4.82,4.82,0,0,1-6.45-3.57c-1.76-9-5.58-25.47-10-25.47s-8.27,16.53-10,25.55a4.82,4.82,0,0,1-6.39,3.6c-6.17-2.28-15.78-5.28-18.16-2.9s2.22,11.24,6.82,18.71a4.82,4.82,0,0,1-4.93,7.28c-2.89-.51-5.47-.51-6.66.67-4.92,4.93,2.38,20.21,16.31,34.13,2.42,2.42,4.88,4.64,7.31,6.63a4.75,4.75,0,0,1,1.73,4.15c-.23,2.38.23,4.28,1.47,5.52,2,2,5.64,2,10.21.37a4.88,4.88,0,0,1,3.2,0c4.57,1.61,8.22,1.61,10.2-.37,1.25-1.24,1.71-3.14,1.48-5.52a4.76,4.76,0,0,1,1.72-4.15,97.91,97.91,0,0,0,7.32-6.63C431.26,326.81,438.56,311.53,433.64,306.6Z" transform="translate(60.4 -81.02)"/><line class="cls-3" x1="455.41" y1="198.09" x2="455.41" y2="311.07"/><polyline class="cls-3" points="470.59 213.6 455.41 228.78 440.24 213.6"/><polyline class="cls-3" points="470.59 242.07 455.41 257.25 440.24 242.07"/><path class="cls-2" d="M439.07,380.86a11.66,11.66,0,0,0-11.66-11.66H282v23.33H427.41a11.67,11.67,0,0,0,11.66-11.67Z" transform="translate(60.4 -81.02)"/><path class="cls-3" d="M405.16,114.63a6.1,6.1,0,0,0-6.18-5.87c-7.58,0-13.2,0-17.08,0a6.55,6.55,0,0,1-6.53-5.76c-.27-2.5-1.26-4.87-4-4.87H336.45a6,6,0,0,0-6.11,5.81,5.9,5.9,0,0,0,5.9,6h1.49a4.46,4.46,0,0,1,1.31.18,4.81,4.81,0,0,1,3.24,6,4.88,4.88,0,0,1-4.68,3.33l-6.57,0A5.76,5.76,0,0,0,325.2,125a5.63,5.63,0,0,0,5.63,5.72h59.7a5.71,5.71,0,0,0,5.76-6.66,2.86,2.86,0,0,1,2.75-3.41h.16A6,6,0,0,0,405.16,114.63Z" transform="translate(60.4 -81.02)"/><path class="cls-3" d="M427.52,120.33h-6.28a5.22,5.22,0,0,0-5.21,5.22h0a5.21,5.21,0,0,0,5.21,5.21h6.28a5.22,5.22,0,0,0,5.22-5.21h0A5.22,5.22,0,0,0,427.52,120.33Z" transform="translate(60.4 -81.02)"/><path class="cls-3" d="M315.06,109.39h-7.17a5.65,5.65,0,0,1-5.64-5.64h0a5.64,5.64,0,0,1,5.64-5.63h7.17a5.63,5.63,0,0,1,5.63,5.63h0A5.64,5.64,0,0,1,315.06,109.39Z" transform="translate(60.4 -81.02)"/><path class="cls-3" d="M432.81,198.62v-5.87a6.32,6.32,0,0,0-6.31-6.32h-.22a6.39,6.39,0,0,1-6-4.24q-.53-1.44-1.17-2.82a6.4,6.4,0,0,1,1.22-7.22l.16-.15a6.34,6.34,0,0,0,0-8.94l-4.16-4.15a6.31,6.31,0,0,0-8.93,0l-.15.15a6.38,6.38,0,0,1-7.22,1.22c-.92-.42-1.87-.81-2.83-1.17a6.37,6.37,0,0,1-4.24-6v-.22a6.31,6.31,0,0,0-6.31-6.32H380.8a6.31,6.31,0,0,0-6.31,6.32v.22a6.37,6.37,0,0,1-4.24,6c-1,.36-1.91.75-2.83,1.17a6.39,6.39,0,0,1-7.22-1.22l-.15-.15a6.31,6.31,0,0,0-8.93,0L347,163.06a6.34,6.34,0,0,0,0,8.94l.16.15a6.4,6.4,0,0,1,1.22,7.22q-.64,1.38-1.17,2.82a6.39,6.39,0,0,1-6,4.24H341a6.32,6.32,0,0,0-6.32,6.32v5.87a6.32,6.32,0,0,0,6.32,6.32h.22a6.39,6.39,0,0,1,6,4.24q.52,1.44,1.17,2.82a6.4,6.4,0,0,1-1.22,7.22l-.16.15a6.34,6.34,0,0,0,0,8.94l4.16,4.15a6.31,6.31,0,0,0,8.93,0l.15-.15a6.39,6.39,0,0,1,7.22-1.22c.92.42,1.87.81,2.83,1.17a6.37,6.37,0,0,1,4.24,6v.22a6.31,6.31,0,0,0,6.31,6.32h5.88a6.31,6.31,0,0,0,6.31-6.32v-.22a6.37,6.37,0,0,1,4.24-6c1-.36,1.91-.75,2.83-1.17a6.38,6.38,0,0,1,7.22,1.22l.15.15a6.31,6.31,0,0,0,8.93,0l4.16-4.15a6.34,6.34,0,0,0,0-8.94l-.16-.15a6.4,6.4,0,0,1-1.22-7.22q.64-1.38,1.17-2.82a6.39,6.39,0,0,1,6-4.24h.22A6.32,6.32,0,0,0,432.81,198.62Z" transform="translate(60.4 -81.02)"/><circle class="cls-3" cx="383.74" cy="195.69" r="25.52" transform="translate(34.43 247.64) rotate(-45)"/><path class="cls-1" d="M124.42,254.85v-2.77a3,3,0,0,0-3-3h-.1a3,3,0,0,1-2.81-2c-.17-.46-.35-.9-.55-1.34a3,3,0,0,1,.57-3.4l.07-.07a3,3,0,0,0,0-4.22l-2-2a3,3,0,0,0-4.21,0l-.07.08a3,3,0,0,1-3.41.57c-.43-.2-.88-.38-1.33-.55a3,3,0,0,1-2-2.81v-.11a3,3,0,0,0-3-3H99.89a3,3,0,0,0-3,3v.11a3,3,0,0,1-2,2.81c-.45.17-.9.35-1.33.55a3,3,0,0,1-3.41-.57l-.07-.08a3,3,0,0,0-4.21,0l-2,2a3,3,0,0,0,0,4.22l.07.07a3,3,0,0,1,.57,3.4c-.2.44-.38.88-.55,1.34a3,3,0,0,1-2.81,2h-.1a3,3,0,0,0-3,3v2.77a3,3,0,0,0,3,3h.1a3,3,0,0,1,2.81,2c.17.45.35.89.55,1.33a3,3,0,0,1-.57,3.4l-.07.08a3,3,0,0,0,0,4.21l2,2a3,3,0,0,0,4.21,0l.07-.07a3,3,0,0,1,3.41-.58c.43.2.88.39,1.33.55a3,3,0,0,1,2,2.82v.1a3,3,0,0,0,3,3h2.77a3,3,0,0,0,3-3v-.1a3,3,0,0,1,2-2.82c.45-.16.9-.35,1.33-.55a3,3,0,0,1,3.41.58l.07.07a3,3,0,0,0,4.21,0l2-2a3,3,0,0,0,0-4.21l-.07-.08a3,3,0,0,1-.57-3.4c.2-.44.38-.88.55-1.33a3,3,0,0,1,2.81-2h.1A3,3,0,0,0,124.42,254.85Z" transform="translate(60.4 -81.02)"/><circle class="cls-1" cx="161.68" cy="172.44" r="12.04"/><path class="cls-1" d="M85.34,233.17l.26-1.93a2.09,2.09,0,0,0-1.8-2.34h-.07A2.11,2.11,0,0,1,82,227.24c-.08-.33-.17-.66-.26-1a2.09,2.09,0,0,1,.71-2.31l.06,0a2.08,2.08,0,0,0,.38-2.92l-1.18-1.55a2.09,2.09,0,0,0-2.93-.38l0,0a2.12,2.12,0,0,1-2.42.09c-.29-.18-.58-.35-.88-.51a2.1,2.1,0,0,1-1.13-2.14v-.07a2.09,2.09,0,0,0-1.8-2.35l-1.92-.25a2.09,2.09,0,0,0-2.35,1.79v.08a2.11,2.11,0,0,1-1.65,1.77c-.33.07-.65.16-1,.26a2.12,2.12,0,0,1-2.32-.72l0,0a2.09,2.09,0,0,0-2.93-.39l-1.54,1.18a2.09,2.09,0,0,0-.39,2.93l0,.06a2.12,2.12,0,0,1,.09,2.42q-.27.42-.51.87a2.09,2.09,0,0,1-2.14,1.13h-.07a2.08,2.08,0,0,0-2.34,1.8l-.26,1.92a2.09,2.09,0,0,0,1.8,2.35H55a2.11,2.11,0,0,1,1.77,1.65c.08.33.16.65.26,1a2.12,2.12,0,0,1-.71,2.31l-.06,0a2.1,2.1,0,0,0-.39,2.93l1.18,1.54a2.09,2.09,0,0,0,2.93.39l.06,0a2.12,2.12,0,0,1,2.42-.09c.28.18.58.35.88.51a2.13,2.13,0,0,1,1.13,2.14v.07A2.09,2.09,0,0,0,66.28,246l1.93.25a2.08,2.08,0,0,0,2.34-1.8v-.07a2.13,2.13,0,0,1,1.65-1.77c.33-.07.66-.16,1-.26a2.12,2.12,0,0,1,2.31.71l0,.06a2.09,2.09,0,0,0,2.93.39L80,242.37a2.1,2.1,0,0,0,.39-2.93l0-.06a2.11,2.11,0,0,1-.08-2.42,9.34,9.34,0,0,0,.5-.87A2.11,2.11,0,0,1,82.92,235H83A2.1,2.1,0,0,0,85.34,233.17Z" transform="translate(60.4 -81.02)"/><circle class="cls-1" cx="69.38" cy="230.07" r="8.44" transform="translate(-109.33 172.95) rotate(-78.93)"/><path class="cls-2" d="M445.41,392.53h-23a6.34,6.34,0,0,1-6.34-6.34h0a6.34,6.34,0,0,1,6.34-6.34h23a6.34,6.34,0,0,1,6.34,6.34h0A6.34,6.34,0,0,1,445.41,392.53Z" transform="translate(60.4 -81.02)"/><path class="cls-3" d="M42.94,300.25a6.12,6.12,0,0,0-6.18-5.87H19.68a6.55,6.55,0,0,1-6.53-5.77c-.28-2.49-1.26-4.86-4-4.86H-25.77a6,6,0,0,0-6.11,5.8,5.89,5.89,0,0,0,5.9,6h1.48a4.83,4.83,0,0,1,1.32.18,4.81,4.81,0,0,1,3.23,6,4.86,4.86,0,0,1-4.67,3.34h-6.57A5.78,5.78,0,0,0-37,310.65a5.63,5.63,0,0,0,5.63,5.73H28.31a5.72,5.72,0,0,0,5.76-6.66,2.85,2.85,0,0,1,2.74-3.41H37A6,6,0,0,0,42.94,300.25Z" transform="translate(60.4 -81.02)"/><path class="cls-3" d="M65.3,306H59a5.22,5.22,0,0,0-5.22,5.21h0A5.22,5.22,0,0,0,59,316.38H65.3a5.22,5.22,0,0,0,5.21-5.22h0A5.21,5.21,0,0,0,65.3,306Z" transform="translate(60.4 -81.02)"/><path class="cls-3" d="M-47.17,295h-7.17A5.63,5.63,0,0,1-60,289.37h0a5.63,5.63,0,0,1,5.63-5.63h7.17a5.63,5.63,0,0,1,5.63,5.63h0A5.63,5.63,0,0,1-47.17,295Z" transform="translate(60.4 -81.02)"/></g><g id="OBJECTS"><rect class="cls-4" x="169.1" y="77.91" width="277.38" height="199.61" rx="11.23"/><path class="cls-5" d="M374.84,170.16V347.3H119.93V170.16H374.84m0-11.23H119.93a11.23,11.23,0,0,0-11.24,11.23V347.3a11.24,11.24,0,0,0,11.24,11.24H374.84a11.23,11.23,0,0,0,11.23-11.24V170.16a11.23,11.23,0,0,0-11.23-11.23Z" transform="translate(60.4 -81.02)"/><rect class="cls-6" x="207.98" y="102.1" width="198.75" height="159" rx="7.63"/><path class="cls-7" d="M338.69,183.12H155.21a7.64,7.64,0,0,0-7.63,7.64v14H346.32v-14A7.63,7.63,0,0,0,338.69,183.12Z" transform="translate(60.4 -81.02)"/><rect class="cls-8" x="163.59" y="226.97" width="75.05" height="110.61" rx="3.71" transform="translate(146.58 -125.73) rotate(16.1)"/><rect class="cls-7" x="161.4" y="222.87" width="75.05" height="110.61" rx="3.71" transform="translate(145.35 -125.28) rotate(16.1)"/><path class="cls-9" d="M235.59,223.74V332.61H162.27V223.74h73.32m.87-.87H161.4V333.48h75.06V222.87Z" transform="translate(60.4 -81.02)"/><line class="cls-10" x1="381.09" y1="108.44" x2="393.48" y2="108.44"/><line class="cls-10" x1="381.09" y1="113.35" x2="393.48" y2="113.35"/><line class="cls-10" x1="381.09" y1="118.25" x2="393.48" y2="118.25"/><path class="cls-4" d="M302.53,199.28H218.45a4.91,4.91,0,0,1-4.91-4.91h0a4.91,4.91,0,0,1,4.91-4.91h84.08a4.91,4.91,0,0,1,4.91,4.91h0A4.91,4.91,0,0,1,302.53,199.28Z" transform="translate(60.4 -81.02)"/><line class="cls-11" x1="220.07" y1="110.66" x2="215.58" y2="115.15"/><line class="cls-11" x1="220.07" y1="115.15" x2="215.58" y2="110.66"/><path class="cls-11" d="M178.76,196.17h0a2.24,2.24,0,0,1-2.24-2.25h0a2.24,2.24,0,0,1,2.24-2.24h0a2.24,2.24,0,0,1,2.24,2.24h0A2.24,2.24,0,0,1,178.76,196.17Z" transform="translate(60.4 -81.02)"/><line class="cls-11" x1="225.8" y1="112.9" x2="230.61" y2="112.9"/><rect class="cls-12" x="264.46" y="277.52" width="93.67" height="21.31"/><path class="cls-5" d="M326.88,392.53H173.57a12.68,12.68,0,0,1,12.68-12.68h128a12.68,12.68,0,0,1,12.67,12.68Z" transform="translate(60.4 -81.02)"/><path class="cls-13" d="M309.92,278.68H255.19a5,5,0,0,1-5-5h0a5,5,0,0,1,5-5h54.73a5,5,0,0,1,5,5h0A5,5,0,0,1,309.92,278.68Z" transform="translate(60.4 -81.02)"/><path class="cls-13" d="M309.92,296.82H255.19a5,5,0,0,1-5-5h0a5,5,0,0,1,5-5h54.73a5,5,0,0,1,5,5h0A5,5,0,0,1,309.92,296.82Z" transform="translate(60.4 -81.02)"/><path class="cls-13" d="M326.84,278.68h0a5,5,0,0,1-5-5h0a5,5,0,0,1,5-5h0a5,5,0,0,1,5,5h0A5,5,0,0,1,326.84,278.68Z" transform="translate(60.4 -81.02)"/><path class="cls-13" d="M326.84,296.82h0a5,5,0,0,1-5-5h0a5,5,0,0,1,5-5h0a5,5,0,0,1,5,5h0A5,5,0,0,1,326.84,296.82Z" transform="translate(60.4 -81.02)"/><path class="cls-13" d="M314.93,310.83a5,5,0,0,1-5,5H255.19a5,5,0,0,1-5-5h0a5,5,0,0,1,5-5h54.73a5,5,0,0,1,5,5Z" transform="translate(60.4 -81.02)"/><path class="cls-13" d="M314.93,329a5,5,0,0,1-5,5H255.19a5,5,0,0,1-5-5h0a5,5,0,0,1,5-5h54.73a5,5,0,0,1,5,5Z" transform="translate(60.4 -81.02)"/><path class="cls-13" d="M326.84,315.84h0a5,5,0,0,1-5-5h0a5,5,0,0,1,5-5h0a5,5,0,0,1,5,5h0A5,5,0,0,1,326.84,315.84Z" transform="translate(60.4 -81.02)"/><path class="cls-13" d="M331.85,329a5,5,0,0,1-5,5h0a5,5,0,0,1-5-5h0a5,5,0,0,1,5-5h0a5,5,0,0,1,5,5Z" transform="translate(60.4 -81.02)"/><line class="cls-14" x1="400.39" y1="327.03" x2="467.21" y2="327.03"/><line class="cls-15" x1="252.96" y1="311.57" x2="114.66" y2="311.57"/><path class="cls-16" d="M146.7,316.75c1.21,2.9,3.88,7.46,7.12,10.08,3.6,2.94,7.29,2.5,11.07,0a.75.75,0,0,1,1.05.2.74.74,0,0,1-.11.95c-8.58,8.25-18.52,1-23.84-9.07-1.6-3,3-5.46,4.6-2.42l.09.21Z" transform="translate(60.4 -81.02)"/><path class="cls-17" d="M149.74,322.26v0a35.13,35.13,0,0,1-3.14-5.74,2.6,2.6,0,0,0-4.6,2.42,31.4,31.4,0,0,0,3.41,5.16A26.4,26.4,0,0,1,149.74,322.26Z" transform="translate(60.4 -81.02)"/><path class="cls-18" d="M145.66,334.67a1.91,1.91,0,0,0,1.91-1.85,34,34,0,0,0,0-3.78c-.37-4.48-.75-9.05-1-11.68a2.44,2.44,0,0,0-2.43-2.25H135.9a2.54,2.54,0,0,0-2.54,2.46c-.09,3.32-.3,9.47-.67,15v0a1.92,1.92,0,0,0,1.91,2.07Z" transform="translate(60.4 -81.02)"/><path class="cls-16" d="M143.1,389.75c-.89-1-1.12-3.31-1.11-5.38a1.29,1.29,0,0,0-2.31-.78h0l0,6.47A4,4,0,0,0,143.1,389.75Z" transform="translate(60.4 -81.02)"/><path class="cls-19" d="M142.94,389.65h0a5.3,5.3,0,0,1-1.8.31,5.19,5.19,0,0,1-1.58-.23l-.27,1.49a.73.73,0,0,0,.69.85c2.09.06,7.47.2,7.61,0C148.23,390.94,145.17,390.52,142.94,389.65Z" transform="translate(60.4 -81.02)"/><path class="cls-20" d="M139.28,363.69a205.49,205.49,0,0,0,.13,20.92l2.7,0c1.35-6.19,2.62-18.22,2.88-20.14a.17.17,0,0,0,0-.07c1.51-6.67,2.26-19.64,2.2-22.27-.08-3.56-2.39-6.4-5.16-6.34s-4.95,3-4.87,6.57C137.22,344.62,139.41,362.76,139.28,363.69Z" transform="translate(60.4 -81.02)"/><path class="cls-21" d="M147.2,342.15c-.08-3.56-2.39-6.4-5.16-6.34s-4.95,3-4.87,6.57c0,1.62,1.2,11.62,1.79,17.34.56-1.3,1.16-2.6,1.72-3.91a15.31,15.31,0,0,1,6.47-11.28C147.19,343.46,147.21,342.63,147.2,342.15Z" transform="translate(60.4 -81.02)"/><path class="cls-18" d="M127.2,388.76c-.19-1.93.69-4.11,1.46-6.17h0a1.34,1.34,0,0,0-2.45,0l-1.68,3.82a.51.51,0,0,0,0,.4A3.6,3.6,0,0,0,127.2,388.76Z" transform="translate(60.4 -81.02)"/><path class="cls-19" d="M128.68,390.08a2.93,2.93,0,0,1-1.41-1.53,4.36,4.36,0,0,1-2.67-2.41,3.5,3.5,0,0,0-.69.7l-.78,1.1a.55.55,0,0,0,.07.71l1,1a12.82,12.82,0,0,0,2.59,1.89c1.26.17,3.6.44,3.68.14C130.6,391.15,129.6,390.53,128.68,390.08Z" transform="translate(60.4 -81.02)"/><path class="cls-22" d="M132.16,362.09c-.68,1.54-4.84,14.56-6.32,20.9a3.29,3.29,0,0,0,2.4,1c2.57-5,8.69-16,9.83-18.45,2.08-3.1,4.36-20.78,4.28-24.08-.08-3.57-2.39-6.4-5.16-6.34s-5.44,2.94-5.36,6.5C131.88,343.92,132.63,361.05,132.16,362.09Z" transform="translate(60.4 -81.02)"/><path class="cls-23" d="M144.25,315.11H142.9a3.29,3.29,0,0,1-6,0h-1.22a2.32,2.32,0,0,0-2.32,2.25c-.09,3.27-.24,7.5-.61,13.19-.34,5.16-1.52,6.77-.85,13.41,0,0,11.2,1.06,15.27-1a66,66,0,0,0,.4-13.95c-.38-4.52-.76-9.14-1-11.76A2.36,2.36,0,0,0,144.25,315.11Z" transform="translate(60.4 -81.02)"/><path class="cls-16" d="M167.35,325.9s-2.17-.21-2.45.43-.35,1.13.57,1.57a7.36,7.36,0,0,0,3.29.54,5.67,5.67,0,0,0,2.46-1c.38-.68-1.24-.37-2-.26s-1.69.15-1.64-.25,1.59-.49,1.8-.92S167.35,325.9,167.35,325.9Z" transform="translate(60.4 -81.02)"/><path class="cls-18" d="M137.68,317.8c3.61,8.08,21.23,7.54,26.5,7.62h0a.75.75,0,0,1,.74.75c0,.93-1.11.82-4.67,1.51-24.67,4.84-31.68-11.52-25.71-12.22C136.43,315.25,137.68,317.8,137.68,317.8Z" transform="translate(60.4 -81.02)"/><path class="cls-17" d="M140.43,320.77a6.6,6.6,0,0,1-2.81-3.42v.08l-.18-.43a2.89,2.89,0,0,0-3.68-1.58l-.06,0a2.57,2.57,0,0,0-1.38,2.76c0,.28.62,3.64,4.59,6.62C136.92,324.83,140.75,321,140.43,320.77Z" transform="translate(60.4 -81.02)"/><path class="cls-24" d="M196.67,224.88H199a0,0,0,0,1,0,0v5.43a0,0,0,0,1,0,0h-.16a2.19,2.19,0,0,1-2.19-2.19v-3.24A0,0,0,0,1,196.67,224.88Z"/><polygon class="cls-18" points="202 234.09 197.68 234.09 198.93 229.78 201.87 230.15 202 234.09"/><path class="cls-16" d="M141.47,311.17l-2.95-.37-.58,2c.66.75,1.64,1.9,2.71,1.9a1.68,1.68,0,0,0,.93-.27Z" transform="translate(60.4 -81.02)"/><path class="cls-18" d="M140.63,313.17h0a3.6,3.6,0,0,1-3.6-3.6v-4h6.17a31.28,31.28,0,0,1-.45,5.24C142.42,312.39,141.64,313.17,140.63,313.17Z" transform="translate(60.4 -81.02)"/><path class="cls-18" d="M138.07,308.81c0,.78-.37,1.42-.83,1.42s-1-1-1-1.81a.92.92,0,0,1,1-1C137.7,307.39,138.07,308,138.07,308.81Z" transform="translate(60.4 -81.02)"/><path class="cls-24" d="M143.83,303.55a10.33,10.33,0,0,1-3.21.22h-2.09a2.27,2.27,0,0,0-2.27,2.27v.49l.67.87.65,1h.09a.75.75,0,0,0,.74-.71,1.19,1.19,0,0,1,1.14-1.18h1.85c1.13,0,1.71.6,1.71,1.45l-.06.71S144.73,307.29,143.83,303.55Z" transform="translate(60.4 -81.02)"/><path class="cls-18" d="M165.9,325.52s-2.11-.54-2.49.05-.53,1.05.31,1.63a7.28,7.28,0,0,0,3.16,1.06,5.64,5.64,0,0,0,2.6-.62c.47-.6-1.18-.56-2-.58s-1.7-.11-1.58-.49,1.65-.24,1.93-.63S165.9,325.52,165.9,325.52Z" transform="translate(60.4 -81.02)"/><path class="cls-16" d="M248.38,298.35a4.66,4.66,0,0,1-6-1.54c-3-3.9-3.61-13.62-3.83-18.55a.74.74,0,0,1,1.47-.18c.59,2.9,1.11,5.42,1.74,7.82.58,2.1,2.82,9.76,4.65,8.63,2.27-1.49,4.64-8.25,4.27-7.25a2.6,2.6,0,0,1,4.88,1.78C255.16,290.06,252.16,296.5,248.38,298.35Z" transform="translate(60.4 -81.02)"/><path class="cls-25" d="M247.65,292.68a34.23,34.23,0,0,0,3-5.49l0,0a1.24,1.24,0,0,1,.1-.2,2.59,2.59,0,0,1,4.59,2.41,33.23,33.23,0,0,1-1.92,3.19c-.47.68-1.08,1.77-1.59,2.41A4.88,4.88,0,0,1,247.65,292.68Z" transform="translate(60.4 -81.02)"/><path class="cls-18" d="M250.28,311.13a1.34,1.34,0,0,0,.91,1.11c3.18,1.05,8,1.62,13.19,2.07a1.32,1.32,0,0,0,1.43-1.27c0-2.1-.86-6-1.12-10-.32-4.93-.52-10.31-.63-13.79a3.84,3.84,0,0,0-3.84-3.71h-5.8a3.75,3.75,0,0,0-3.75,3.44c-.22,2.7-.54,6.62-.87,10.49A77,77,0,0,0,250.28,311.13Z" transform="translate(60.4 -81.02)"/><path class="cls-16" d="M257.7,354l0,5.13.45,2.5a.71.71,0,0,1-.68.84c-2.1.07-7.48.21-7.62,0-.68-1.1,2.38-1.52,4.61-2.38s.7-9.35.7-9.35Z" transform="translate(60.4 -81.02)"/><path class="cls-26" d="M254.44,360.1l0,0a5.08,5.08,0,0,0,1.81.31,5.18,5.18,0,0,0,1.57-.23l.27,1.5a.71.71,0,0,1-.68.84c-2.1.07-7.48.21-7.62,0C249.15,361.38,252.21,361,254.44,360.1Z" transform="translate(60.4 -81.02)"/><path class="cls-27" d="M250.19,312.6c-.08,3.56,1.32,26.17,4.09,26.23s5.85-22.44,5.93-26-2.1-6.5-4.86-6.56S250.27,309,250.19,312.6Z" transform="translate(60.4 -81.02)"/><path class="cls-28" d="M258.1,334.13a207.86,207.86,0,0,1-.12,20.92h-2.52c-1.36-6.19-2.8-18.2-3.07-20.12a.15.15,0,0,1,0-.07c-1.51-6.66-2.25-19.64-2.19-22.26.08-3.57,2.39-6.41,5.16-6.34s4.94,3,4.86,6.56C260.16,315.06,258,333.21,258.1,334.13Z" transform="translate(60.4 -81.02)"/><path class="cls-29" d="M256.68,325.9q.92,2.25,1.72,4.55c.57-5.66,1.77-16,1.81-17.63.08-3.56-2.1-6.5-4.86-6.56s-5.08,2.77-5.16,6.34c0,.48,0,1.31,0,2.38A15.35,15.35,0,0,1,256.68,325.9Z" transform="translate(60.4 -81.02)"/><path class="cls-16" d="M263.75,354l0,5.13.45,2.5a.71.71,0,0,1-.68.84c-2.1.07-7.48.21-7.62,0-.68-1.1,2.38-1.52,4.61-2.38s.7-9.35.7-9.35Z" transform="translate(60.4 -81.02)"/><path class="cls-30" d="M260.49,360.1a.05.05,0,0,1,0,0,5.07,5.07,0,0,0,1.8.31,5.19,5.19,0,0,0,1.58-.23l.27,1.5a.71.71,0,0,1-.68.84c-2.1.07-7.48.21-7.62,0C255.2,361.38,258.26,361,260.49,360.1Z" transform="translate(60.4 -81.02)"/><path class="cls-27" d="M256.24,312.6c-.09,3.56,1.32,26.17,4.08,26.23s5.26-22.53,5.34-26.09-1.5-6.42-4.27-6.48S256.32,309,256.24,312.6Z" transform="translate(60.4 -81.02)"/><path class="cls-27" d="M264.15,334.13a207.86,207.86,0,0,1-.12,20.92h-2.52c-1.36-6.19-2.8-18.2-3.07-20.12a.15.15,0,0,1,0-.07,156.82,156.82,0,0,1-2.79-22.35c.08-3.56,3-6.32,5.75-6.25s4.35,2.92,4.27,6.48C265.61,315,264,333.21,264.15,334.13Z" transform="translate(60.4 -81.02)"/><path class="cls-31" d="M250.78,287.73a2.36,2.36,0,0,1,2.35-2.17h1.35a3.3,3.3,0,0,0,6,0h1.23A2.3,2.3,0,0,1,264,287.8c.1,3.27.19,8.22.57,13.92.34,5.15,1.77,7.5,1.06,12.75,0,0-13.51,1-15.77-1.56a94.45,94.45,0,0,1-.07-13.42C250.18,295,250.56,290.34,250.78,287.73Z" transform="translate(60.4 -81.02)"/><path class="cls-16" d="M237.91,276.33s.06,2.55.67,2.89,1,.19,1.49-.57a7.09,7.09,0,0,0,.72-3.25,8.5,8.5,0,0,0-.85-2.61c-.64-.44-.29,1.4-.25,2.2s-.21,1.23-.6,1.13-.33-1.34-.74-1.59S237.91,276.33,237.91,276.33Z" transform="translate(60.4 -81.02)"/><path class="cls-18" d="M264.51,289.78c-7.27,9.89-20.78,15.7-31,6.07a.74.74,0,0,1,.88-1.18l0,0c4.69,2.7,9,3.88,14.39,1.62,4.5-1.94,8.55-5.75,11.45-9.56l.05-.07C262.4,284,266.51,287,264.51,289.78Z" transform="translate(60.4 -81.02)"/><path class="cls-25" d="M256.51,290.87a37.3,37.3,0,0,0,4-4.65s1-1.24,3.21-.33a2.57,2.57,0,0,1,1.37,2.76c0,.28-.62,3.65-4.58,6.62C260.47,295.27,257.3,293.8,256.51,290.87Z" transform="translate(60.4 -81.02)"/><path class="cls-24" d="M260.58,277.44h.16a0,0,0,0,1,0,0v5.43a0,0,0,0,1,0,0h-2.35a0,0,0,0,1,0,0v-3.24A2.19,2.19,0,0,1,260.58,277.44Z" transform="matrix(-0.98, -0.22, 0.22, -0.98, 512.47, 528.99)"/><polygon class="cls-18" points="316.18 204.54 320.51 204.54 319.26 200.22 316.31 200.59 316.18 204.54"/><path class="cls-16" d="M255.91,281.61l3-.36.58,2c-.66.74-1.64,1.89-2.71,1.89a1.68,1.68,0,0,1-.93-.27Z" transform="translate(60.4 -81.02)"/><path class="cls-18" d="M255.46,283.9h0a3.6,3.6,0,0,0,4.3-2.73l.87-3.92-6-1.34a31.43,31.43,0,0,0-.7,5.22C253.89,282.75,254.47,283.68,255.46,283.9Z" transform="translate(60.4 -81.02)"/><path class="cls-18" d="M258.9,280.2c-.17.76.06,1.47.51,1.57s1.18-.79,1.35-1.56A.92.92,0,0,0,260,279C259.58,278.9,259.07,279.44,258.9,280.2Z" transform="translate(60.4 -81.02)"/><path class="cls-24" d="M253.83,277.43a3.43,3.43,0,0,1,.24-1.52h0a2.39,2.39,0,0,1,3.05-1.29l.39.11,2,.45a2.28,2.28,0,0,1,1.72,2.71l-.1.48-.88.71-.82.84-.08,0a.74.74,0,0,1-.58-.84,1.19,1.19,0,0,0-.85-1.41l-1.81-.4c-1.1-.24-1.8.22-2,1l-.1.71Z" transform="translate(60.4 -81.02)"/><path class="cls-18" d="M232.89,293.57s.15,2.17.83,2.35,1.16.16,1.45-.82a7.34,7.34,0,0,0,0-3.33,5.67,5.67,0,0,0-1.4-2.27c-.73-.26-.16,1.29.07,2.06s.43,1.65,0,1.66-.74-1.49-1.2-1.63S232.89,293.57,232.89,293.57Z" transform="translate(60.4 -81.02)"/><line class="cls-32" x1="320" y1="219.65" x2="336.71" y2="311.5"/><line class="cls-32" x1="311.97" y1="311.5" x2="295.25" y2="219.65"/><line class="cls-32" x1="297.22" y1="227.03" x2="321.41" y2="227.03"/><line class="cls-32" x1="298.83" y1="238.11" x2="323.36" y2="238.11"/><line class="cls-32" x1="301.07" y1="249.19" x2="325.37" y2="249.19"/><line class="cls-32" x1="303.23" y1="260.27" x2="327.39" y2="260.27"/><line class="cls-32" x1="304.96" y1="271.35" x2="329.41" y2="271.35"/><line class="cls-32" x1="306.61" y1="282.23" x2="331.39" y2="282.23"/><line class="cls-32" x1="309.04" y1="293.51" x2="333.44" y2="293.51"/><line class="cls-32" x1="310.71" y1="304.59" x2="335.18" y2="304.59"/><line class="cls-33" x1="295.25" y1="219.65" x2="278.53" y2="311.5"/><line class="cls-33" x1="303.28" y1="311.5" x2="320" y2="219.65"/><line class="cls-33" x1="318.03" y1="227.03" x2="293.91" y2="227.03"/><line class="cls-33" x1="316.42" y1="238.11" x2="291.89" y2="238.11"/><line class="cls-33" x1="314.18" y1="249.19" x2="289.88" y2="249.19"/><line class="cls-33" x1="312.02" y1="260.27" x2="287.86" y2="260.27"/><line class="cls-33" x1="310.28" y1="271.35" x2="285.84" y2="271.35"/><line class="cls-33" x1="308.64" y1="282.23" x2="283.86" y2="282.23"/><line class="cls-33" x1="306.21" y1="293.51" x2="281.81" y2="293.51"/><line class="cls-33" x1="304.54" y1="304.59" x2="280.07" y2="304.59"/><path class="cls-24" d="M259.92,276c.13,1.12-3.88,2.53-4.94,2.66a2,2,0,0,1-.5-4C255.54,274.49,259.78,274.88,259.92,276Z" transform="translate(60.4 -81.02)"/><rect class="cls-13" x="310.81" y="141.85" width="82.67" height="35.86"/><rect class="cls-8" x="247.92" y="196.47" width="82.67" height="35.86" rx="3.29" transform="translate(23.78 -19.73) rotate(-11.38)"/><rect class="cls-7" x="248.29" y="192.79" width="82.67" height="35.86" rx="3.29" transform="translate(24.52 -19.73) rotate(-11.38)"/><polyline class="cls-34" points="308.05 134.38 318.02 118.25 319.84 10.36 377.08 105.97 389.26 115.15"/><path class="cls-35" d="M172.92,136.51c1.92,1.94,16.54,17.47,15.75,18s-17.93-12-19.84-13.9-2.56-4.42-1.43-5.54S171,134.57,172.92,136.51Z" transform="translate(60.4 -81.02)"/><path class="cls-18" d="M193.4,156.63c-1.85-.86-5.41-4.33-8.9-7.5l-.87,2.34,5.61,5.17A5.26,5.26,0,0,0,193.4,156.63Z" transform="translate(60.4 -81.02)"/><path class="cls-30" d="M193.07,156.41a7.23,7.23,0,0,1-3.92.17c0,.41,0,1.5,0,1.88a.55.55,0,0,0,.49.53s8.63.06,8.61-.25C198.2,156.55,193.69,156.76,193.07,156.41Z" transform="translate(60.4 -81.02)"/><path class="cls-18" d="M204,156.63c-1.85-.86-5.41-4.33-8.9-7.5l-.87,2.34,5.61,5.17A5.26,5.26,0,0,0,204,156.63Z" transform="translate(60.4 -81.02)"/><path class="cls-30" d="M203.72,156.41a7.27,7.27,0,0,1-3.93.17c0,.41,0,1.5,0,1.88a.55.55,0,0,0,.49.53s8.63.06,8.62-.25C208.84,156.55,204.33,156.76,203.72,156.41Z" transform="translate(60.4 -81.02)"/><path class="cls-28" d="M179.38,140.47c1.19,1.2,11.89,9.58,17.25,13.27A7.35,7.35,0,0,0,198.4,152c-3.75-4.22-11.76-13.79-13.66-15.77-2.13-3.06-17.76-11.63-20.86-12.77-3.35-1.23-6.83-.11-7.78,2.49s.75,6.15,4.1,7.37C162.36,134.1,178.58,139.66,179.38,140.47Z" transform="translate(60.4 -81.02)"/><path class="cls-29" d="M165.32,124.13c-.56-.26-1-.47-1.34-.58-3.35-1.23-6.83-.11-7.78,2.49s.75,6.14,4.09,7.37c1.09.4,5.72,2,10.16,3.59A27.91,27.91,0,0,1,165.32,124.13Z" transform="translate(60.4 -81.02)"/><path class="cls-27" d="M174.18,136.32c-1.34-1.93-8.06-6.06-13.61-9.12a2.29,2.29,0,0,0-2.46.16c-1.65,1.17-3.38,2.24-5.1,3.32a2.25,2.25,0,0,0-1,2.11c0,.22,0,.43,0,.65s-.2.19-.2.46c5.14,1.8,16.37,6,17,6.67,1.18,1.2,12,9.74,17.34,13.43a5.14,5.14,0,0,0,2.28-1.61C184.71,148.17,176.08,138.3,174.18,136.32Z" transform="translate(60.4 -81.02)"/><path class="cls-16" d="M151.42,103c6.45,6,20.22,6.63,29,6.3a.74.74,0,0,1,.21,1.47c-10.32,2-24.11,2.5-32.53-3.79-2.75-2.05.35-6.21,3.11-4.16Z" transform="translate(60.4 -81.02)"/><path class="cls-36" d="M156.65,105.79c-.94-.47-4.62-2.29-5.36-2.86l0,0-.19-.13a2.6,2.6,0,0,0-2.81,4.37,33.54,33.54,0,0,0,3.25,1.83c.74.35,1.49.68,2.26,1A43.15,43.15,0,0,1,156.65,105.79Z" transform="translate(60.4 -81.02)"/><path class="cls-18" d="M163.29,123.71,151.8,133.9c-1.39-.5-2.66-5.61-4.9-10.26-2.42-5-5.26-10.49-6.81-13.43a2.54,2.54,0,0,1,1-3.39l7.21-4.07a2.45,2.45,0,0,1,3.23.76c1.48,2.18,3.55,7.25,6.08,11S163.29,123.71,163.29,123.71Z" transform="translate(60.4 -81.02)"/><path class="cls-37" d="M148.35,102.72l-1.17.66a3.29,3.29,0,0,1-5.21,2.94l-1.07.61A2.3,2.3,0,0,0,140,110c1.52,2.89,4.44,8.48,6.91,13.62,2.24,4.65,3.37,9.51,4.9,10.26,5.12-3.53,11.65-7.16,12.25-10.38,0,0-8-11.76-12.58-20.08A2.28,2.28,0,0,0,148.35,102.72Z" transform="translate(60.4 -81.02)"/><path class="cls-16" d="M182.61,110.83s-2,.9-2.46.39-.7-1,0-1.66A7.34,7.34,0,0,1,183.1,108a5.68,5.68,0,0,1,2.67.15c.57.52-1.06.76-1.85.92s-1.65.41-1.47.76,1.66,0,2,.29S182.61,110.83,182.61,110.83Z" transform="translate(60.4 -81.02)"/><path class="cls-38" d="M140.29,96.62h2.35a0,0,0,0,1,0,0V102a0,0,0,0,1,0,0h-.16a2.19,2.19,0,0,1-2.19-2.19V96.62A0,0,0,0,1,140.29,96.62Z" transform="translate(44.41 -53.01) rotate(-10.71)"/><polygon class="cls-18" points="207.17 23.92 203.52 25.43 203.15 24.98 203.34 20.25 206.31 20.06 207.17 23.92"/><path class="cls-16" d="M145.91,101.08l-3,.19-.08,1.9a3.58,3.58,0,0,0,2.76,1.07,2,2,0,0,0,.89-.48Z" transform="translate(60.4 -81.02)"/><path class="cls-18" d="M145.45,103.21h0a3.6,3.6,0,0,1-4.21-2.87l-.75-3.94,6.07-1.15a31,31,0,0,1,.54,5.24C147.06,102.11,146.45,103,145.45,103.21Z" transform="translate(60.4 -81.02)"/><rect class="cls-38" x="140.49" y="97.86" width="1.16" height="0.53" transform="translate(44.61 -53.07) rotate(-10.72)"/><path class="cls-18" d="M142.13,99.4c.14.77-.11,1.46-.56,1.55s-1.15-.83-1.29-1.6a.92.92,0,0,1,.76-1.19C141.5,98.08,142,98.63,142.13,99.4Z" transform="translate(60.4 -81.02)"/><path class="cls-38" d="M147.29,96.79a3.47,3.47,0,0,0-.2-1.53s-.31-1.76-1.06-2-1.68.41-2.34.69a13.16,13.16,0,0,1-2.05.39,2.25,2.25,0,0,0-1.8,2.65l.09.47,1.18.74.46.87h.08a.75.75,0,0,0,.61-.83,1.19,1.19,0,0,1,.89-1.38l1.82-.34c1.11-.21,1.8.27,1.95,1.1l.08.71Z" transform="translate(60.4 -81.02)"/><line class="cls-39" x1="307.35" y1="1.55" x2="217.82" y2="39.89"/><path class="cls-18" d="M149.47,113a22.47,22.47,0,0,0,9.47,2.71c5.61.68,15.55-2.74,14.55-2.43a.74.74,0,0,1,.57,1.36c-4.42,2.35-10.45,4.81-15.11,4.84l-2.36,0c-7.76-.29-14.25-4.3-17.11-8.39a2.58,2.58,0,0,1,.63-3.6C143,105.45,143.76,109.7,149.47,113Z" transform="translate(60.4 -81.02)"/><path class="cls-36" d="M147.35,111.38a31.7,31.7,0,0,1-3.67-3.46l0,.06-1.43-1.08s-1.52-.56-3,1.29a2.57,2.57,0,0,0,.16,3.08c.18.23,1,2.25,5.17,4.63C144.67,115.9,147.66,111.62,147.35,111.38Z" transform="translate(60.4 -81.02)"/><path class="cls-18" d="M175.16,112.4s-2.13.43-2.21,1.13,0,1.18,1,1.33a7.27,7.27,0,0,0,3.31-.44,5.76,5.76,0,0,0,2.06-1.69c.16-.75-1.3,0-2,.34s-1.58.65-1.64.25,1.38-.93,1.45-1.41S175.16,112.4,175.16,112.4Z" transform="translate(60.4 -81.02)"/><path class="cls-4" d="M329.49,273.67a2.65,2.65,0,1,1-2.65-2.64A2.64,2.64,0,0,1,329.49,273.67Z" transform="translate(60.4 -81.02)"/><path class="cls-4" d="M329.49,291.76a2.65,2.65,0,1,1-2.65-2.65A2.65,2.65,0,0,1,329.49,291.76Z" transform="translate(60.4 -81.02)"/><path class="cls-6" d="M351.79,320.93a4.92,4.92,0,0,1,.18,3.15,5.12,5.12,0,0,0,1.13,5,16.6,16.6,0,0,1,.7-3.33C354.25,324.68,354,321.5,351.79,320.93Z" transform="translate(60.4 -81.02)"/><path class="cls-40" d="M355.26,320.25s-2.37,1.49-2.09,3.51c0,0-1.27-.9-1.55-4C351.42,317.62,355.26,320.25,355.26,320.25Z" transform="translate(60.4 -81.02)"/><path class="cls-6" d="M368.27,329.63a4.91,4.91,0,0,1-2.65-2.63,7.5,7.5,0,0,0-3.93-4.25,2.34,2.34,0,0,1-1.44-2.15H357.9v1.79c-3.23.73-5.67,4-5.67,8,0,4.34,2.93,7.88,6.62,8.12.52,3.9,3.42,6.88,6.92,6.88,3.88,0,7-3.64,7-8.14A8.19,8.19,0,0,0,368.27,329.63Z" transform="translate(60.4 -81.02)"/><path class="cls-18" d="M354.75,332.73a4.24,4.24,0,0,1-.1.58c0,.17-.07.33-.11.48a8.94,8.94,0,0,1-.28.92,9.84,9.84,0,0,1-.8,1.75,9.41,9.41,0,0,1-2.69,2.94,12,12,0,0,1-1.8.89,10,10,0,0,1-1.88.43,14,14,0,0,1-1.82.07l-1.71-.21a21.82,21.82,0,0,1-5.95-2.32l-1.33-.77a9.58,9.58,0,0,1-1.28-.82l-2.46-1.75a.74.74,0,0,1-.17-1,.72.72,0,0,1,.9-.25l.05,0c1.79.78,3.55,1.6,5.36,2.18A20.07,20.07,0,0,0,344,337a5.72,5.72,0,0,0,4.07-1.19,4.64,4.64,0,0,0,1.06-1.56,6.6,6.6,0,0,0,.32-1,3.06,3.06,0,0,0,.1-.51,1.12,1.12,0,0,0,0-.24c0-.08,0-.17,0-.15a2.59,2.59,0,0,1,5.17.41Z" transform="translate(60.4 -81.02)"/><path class="cls-18" d="M349.31,355c2.26,2.59,15.3,3.68,15.3,3.68,1-1.12-3.52-13.87-3.52-13.87s2.16-9.2,2.06-12.52a2.53,2.53,0,0,0-2.54-2.46h-8.27a2.46,2.46,0,0,0-2.44,2.25c-.22,2.63,3.22,12.45,3.22,12.45S347.36,352.73,349.31,355Z" transform="translate(60.4 -81.02)"/><path class="cls-16" d="M356.45,405.24a.7.7,0,0,0,0,.55.68.68,0,0,0,.39.39c1.61.66,2.25.45,3.19-.21v-7.83l-1.55-2.34a.61.61,0,0,0-1.12.42c.47,3.25.9,8.2-.65,8.54C356.68,404.76,356.57,405,356.45,405.24Z" transform="translate(60.4 -81.02)"/><path class="cls-41" d="M358.07,405.61a2.54,2.54,0,0,1-1.43-.79c-3.27.28-4.85,1.36-4.85,2.32.15.23,5.76,0,7.86,0,.44,0,.62-.43.54-.86L360,405A2.11,2.11,0,0,1,358.07,405.61Z" transform="translate(60.4 -81.02)"/><path class="cls-18" d="M380.58,368.18c-6.26,1.72-16.91,5.18-18.63,6.06-2.43,1.24-3.16,3.59-2.43,5s2.63,1.36,5.06.12c1.67-.85,11.41-6.39,16.9-9.71C381.27,369,380.76,368.82,380.58,368.18Z" transform="translate(60.4 -81.02)"/><path class="cls-18" d="M386.18,368.79a.69.69,0,0,0,.5-.23.71.71,0,0,0,.18-.52c-.14-1.74-.61-2.22-1.62-2.76a46.4,46.4,0,0,1-7.91,3.86h0a1.38,1.38,0,0,0,1.91,1.81c2.61-1.45,5.67-2.89,6.4-2.16Z" transform="translate(60.4 -81.02)"/><path class="cls-41" d="M385.79,367.18a2.55,2.55,0,0,1-.07,1.62c1.72,2.81,3.39,3.73,4.24,3.3.15-.23-2.54-5.17-3.53-7-.21-.39-.66-.36-1-.09l-1,.68A2.15,2.15,0,0,1,385.79,367.18Z" transform="translate(60.4 -81.02)"/><path class="cls-16" d="M357.68,398.23c.7.41,1.59.33,2.29.74.16-6.55,0-17.21-.36-19.06-.48-2.69-2.13-4.64-3.7-4.36s-2.45,2.68-2,5.37C354.23,382.61,356.14,392,357.68,398.23Z" transform="translate(60.4 -81.02)"/><path class="cls-16" d="M349.56,357.19c.2,3.56,3.4,26,6.17,25.82s4-22.84,3.84-26.39-2.61-6.32-5.37-6.16S349.36,353.63,349.56,357.19Z" transform="translate(60.4 -81.02)"/><path class="cls-18" d="M353.81,356.35c.06,3.56,4.06,23.87,6.83,23.82s3.76-20.51,3.69-24.08-2.85-6.33-5.62-6.28S353.75,352.78,353.81,356.35Z" transform="translate(60.4 -81.02)"/><polygon class="cls-18" points="415.66 249.35 419.42 248.96 418.23 244.85 415.8 245.15 415.66 249.35"/><path class="cls-16" d="M355.4,326.17l2.43-.3.37,1.29c-.55.61-1.24,1.93-2.13,1.93a1.43,1.43,0,0,1-.76-.22Z" transform="translate(60.4 -81.02)"/><path class="cls-18" d="M355.32,328.16a4.64,4.64,0,0,0,2.94-1.49,3.74,3.74,0,0,0,1.23-2.41v-4h-6.18a11.33,11.33,0,0,0,0,4.24C353.63,326.08,354.67,328.16,355.32,328.16Z" transform="translate(60.4 -81.02)"/><rect class="cls-6" x="358.66" y="321.78" width="1.16" height="0.53" transform="translate(778.87 563.07) rotate(180)"/><path class="cls-18" d="M358.44,323.5c0,.78.37,1.42.84,1.42s1-1,1-1.81a.92.92,0,0,0-1-1C358.81,322.08,358.44,322.72,358.44,323.5Z" transform="translate(60.4 -81.02)"/><path class="cls-6" d="M358,318.46h-2.09a3.46,3.46,0,0,1-1.61-.4,1.75,1.75,0,0,0-2.29.44c-.5.72-.68,1.67.65,2.56.69.45,1.69-.05,2.35.17h2a1.18,1.18,0,0,1,1.14,1.18.75.75,0,0,0,.75.71h.08l.29-.95,1-.94v-.49A2.27,2.27,0,0,0,358,318.46Z" transform="translate(60.4 -81.02)"/><path class="cls-18" d="M330.6,334.88s2.09.59,2.48,0,.56-1-.27-1.64a7.37,7.37,0,0,0-3.13-1.13,5.48,5.48,0,0,0-2.61.55c-.49.59,1.16.59,2,.62s1.69.16,1.57.54-1.65.19-1.94.58S330.6,334.88,330.6,334.88Z" transform="translate(60.4 -81.02)"/><path class="cls-4" d="M333.41,337a5,5,0,1,1-5-5A5,5,0,0,1,333.41,337Z" transform="translate(60.4 -81.02)"/><path class="cls-18" d="M330.62,340.21s2.1-.54,2.48.05.53,1.05-.31,1.63a7.28,7.28,0,0,1-3.16,1.06,5.59,5.59,0,0,1-2.59-.62c-.48-.6,1.17-.56,2-.58s1.7-.11,1.58-.49-1.64-.24-1.92-.63S330.62,340.21,330.62,340.21Z" transform="translate(60.4 -81.02)"/><path class="cls-30" d="M361.75,345.61a1.86,1.86,0,0,1-.42-1.62c.57-2.75,1.89-9.38,1.81-11.94a2.31,2.31,0,0,0-2.31-2.25H359.6a3.29,3.29,0,0,1-6,0h-1.15a7.57,7.57,0,0,1-.74,7.59,2,2,0,0,0-.32,1.72c.47,1.57.94,3.05,1.27,4.06a1.9,1.9,0,0,1-.46,1.95c-3.5,3.53-5.92,11-5.92,19.69,0,.73,0,1.46,0,2.18a1.93,1.93,0,0,0,1.93,1.84h17a2,2,0,0,0,1.94-1.84c0-.72,0-1.45,0-2.18C367.21,356.52,365,349.32,361.75,345.61Z" transform="translate(60.4 -81.02)"/><path class="cls-42" d="M362.05,340.18c.42-2.21.87-4.77,1-6.63a12.29,12.29,0,0,1-10.25,8.25c1,.42,2.46.95,3.84,1.44A4.08,4.08,0,0,0,362.05,340.18Z" transform="translate(60.4 -81.02)"/><path class="cls-6" d="M353.61,320.7c.37.82.21,1.37,3.14,2.07s3.64-.09,4.78,1.17c0,0-.88-2.34-2.52-2.81s-4.28-.38-5.5-2.11A4.13,4.13,0,0,0,353.61,320.7Z" transform="translate(60.4 -81.02)"/><path class="cls-18" d="M364.1,332.88a7.47,7.47,0,0,1-.48,1.59,10.75,10.75,0,0,1-.63,1.22,12.24,12.24,0,0,1-.74,1.09c-.27.33-.55.66-.83,1a14.92,14.92,0,0,1-1.9,1.6c-.34.23-.67.47-1,.68l-1,.56a25.66,25.66,0,0,1-8.62,2.36,48.09,48.09,0,0,1-8.49-.06c-1.39-.18-2.78-.26-4.15-.53s-2.72-.51-4.07-.79a.76.76,0,0,1-.58-.88.74.74,0,0,1,.72-.59h0c1.36,0,2.72,0,4.07,0s2.68-.09,4-.13l1-.05,1-.11,2-.19a17.8,17.8,0,0,0,1.94-.3c.64-.12,1.28-.22,1.92-.35a23.29,23.29,0,0,0,6.88-2.61l.74-.44.65-.52a9.48,9.48,0,0,0,1.17-1.1c.15-.21.31-.4.47-.6s.25-.41.39-.61.2-.41.29-.6l.1-.28,0-.1,0,0a.13.13,0,0,0,0,.06,2.59,2.59,0,0,1,5.13.75Z" transform="translate(60.4 -81.02)"/><circle class="cls-43" cx="310.49" cy="10.35" r="9.35"/><circle class="cls-43" cx="310.49" cy="10.35" r="3.85"/></g></svg>