<?xml version="1.0" encoding="utf-8"?>
<!-- Generator: Adobe Illustrator 25.0.0, SVG Export Plug-In . SVG Version: 6.00 Build 0)  -->
<svg version="1.1" id="Camada_1" xmlns="http://www.w3.org/2000/svg" xmlns:xlink="http://www.w3.org/1999/xlink" x="0px" y="0px"
	 viewBox="0 0 482.2 205.7" style="enable-background:new 0 0 482.2 205.7;" xml:space="preserve">
<style type="text/css">
	.st0{fill-rule:evenodd;clip-rule:evenodd;fill:#DDDDDD;}
	.st1{fill-rule:evenodd;clip-rule:evenodd;fill:#A0A0A0;}
	.st2{fill:#494949;}
</style>
<path class="st0" d="M0.1,51.4L90.4,107v49.4L0.1,101V51.4z"/>
<path class="st1" d="M0,101.1l138.7-78.6L90.4,0L0,50.7V101.1z"/>
<path class="st0" d="M139,128.7l-48.6,27.7v49.4l48.6-27.3V128.7z"/>
<path class="st1" d="M41.6,126.5l48.8,29.9v49.4L0,151.3L41.6,126.5z"/>
<path class="st1" d="M90.4,49.8L139,78.4L90.4,107V49.8z"/>
<path class="st2" d="M203.2,113.1c0-21.9,16.1-38,38.8-38s38.5,16.1,38.5,38v5.1h-62.8c2,12.8,11.7,20,24.2,20
	c9.3,0,15.9-2.9,20.2-9.2h15.3c-5.5,13.4-18.7,22-35.5,22C219.3,151.1,203.2,135.1,203.2,113.1z M266,105.8
	C263.2,94.3,253.7,88,242,88c-12,0-21,6.4-23.8,17.8H266z"/>
<path class="st2" d="M292,111.7c0-24.1,14.3-36.5,35.6-36.5s35.6,12.3,35.6,36.5v37.5h-13.9v-37.5c0-15.6-8.6-23.7-21.8-23.7
	s-21.8,8-21.8,23.7v37.5H292V111.7z"/>
<path class="st2" d="M380.2,45.5H394v103.7h-13.9V45.5H380.2z"/>
<path class="st2" d="M411.6,157.9h13.9c3.3,8.2,10.5,12,20.9,12c13.4,0,22-6.4,22-22.8v-10.4c-4.5,8.9-13.3,13.9-24.1,13.9
	c-18,0-33.3-11.2-33.3-36.5v-37h13.9V114c0,15.6,8.6,23.5,21.8,23.5c12.8,0,21.8-8.2,21.8-23.5V77.1h13.9v69.7
	c0,25.1-15.9,35.2-35.9,35.2C429.7,181.9,415.8,174.2,411.6,157.9z"/>
</svg>
