<svg xmlns="http://www.w3.org/2000/svg" viewBox="0 0 140.7 110.03"><defs><style>.cls-1{fill:#f6f6f6;}.cls-2{fill:#fa968c;}.cls-3{fill:#fab9af;}.cls-4{fill:#46738c;}.cls-5{fill:#1c9585;}.cls-6{fill:#177d74;}.cls-7{fill:#39ae96;}.cls-8{fill:#ffa50a;}.cls-9{fill:#3c5a73;}.cls-10,.cls-11{fill:none;stroke-miterlimit:10;}.cls-10{stroke:#6b9490;stroke-width:1.3px;}.cls-11{stroke:#c9c9c9;stroke-width:0.86px;}.cls-12{fill:#fbd3a0;}</style></defs><g id="Camada_3" data-name="Camada 3"><path class="cls-1" d="M827.94,533.75c-3.69,9.25-12.46,9.77-18.56,16.13-9.85,10.24-9.46,32.23-.63,45.37,9.66,14.39,27.61,15.44,54,17,22.73,1.34,45.54,2.69,63.25-12.75,3.89-3.39,16.41-14.3,16.75-31.5.27-13.59-7.14-27.71-18.25-33.75-9.7-5.27-14.77-.33-25.5-6.75-9.24-5.53-7.56-10.44-17.25-17-2.94-2-14.14-9.57-28.25-7-9.2,1.68-20.29,7.78-23.75,17.5C827.76,526.6,830.13,528.25,827.94,533.75Z" transform="translate(-802.06 -502.97)"/></g><g id="Camada_1" data-name="Camada 1"><path class="cls-2" d="M850.35,535.93c-2.41,8.46,3.24,21,7.51,28.71a.74.74,0,0,1-1.21.85c-6.44-8.3-13.15-20.36-11.36-30.72.58-3.38,5.7-2.5,5.12.89Z" transform="translate(-802.06 -502.97)"/><path class="cls-3" d="M850.5,547.7a1.91,1.91,0,0,0,1.91-1.85,36.6,36.6,0,0,0,0-3.78c-.38-4.48-.75-9.05-1-11.68a2.44,2.44,0,0,0-2.44-2.25h-8.27a2.54,2.54,0,0,0-2.54,2.46c-.09,3.32-.31,9.47-.67,15v0a1.92,1.92,0,0,0,1.91,2.07Z" transform="translate(-802.06 -502.97)"/><path class="cls-2" d="M847.94,602.77c-.89-1-1.12-3.3-1.11-5.37a1.29,1.29,0,0,0-2.31-.78h0l0,6.46A4,4,0,0,0,847.94,602.77Z" transform="translate(-802.06 -502.97)"/><path class="cls-4" d="M847.78,602.68l0,0a5.06,5.06,0,0,1-1.8.32,5.19,5.19,0,0,1-1.58-.23l-.27,1.49a.73.73,0,0,0,.68.85c2.1.06,7.48.2,7.62,0C853.07,604,850,603.55,847.78,602.68Z" transform="translate(-802.06 -502.97)"/><path class="cls-5" d="M844.12,576.72a207.66,207.66,0,0,0,.12,20.91l2.71,0c1.35-6.19,2.61-18.22,2.88-20.14a.17.17,0,0,0,0-.07c1.51-6.67,2.26-19.64,2.2-22.27-.09-3.56-2.4-6.4-5.16-6.34s-5,3-4.87,6.57C842.06,557.65,844.25,575.79,844.12,576.72Z" transform="translate(-802.06 -502.97)"/><path class="cls-6" d="M852,555.18c-.09-3.56-2.4-6.4-5.16-6.34s-5,3-4.87,6.57c0,1.62,1.2,11.62,1.79,17.34.56-1.3,1.16-2.6,1.72-3.91A15.31,15.31,0,0,1,852,557.56C852,556.49,852.05,555.66,852,555.18Z" transform="translate(-802.06 -502.97)"/><path class="cls-3" d="M832,601.79c-.19-1.93.68-4.11,1.46-6.17h0a1.34,1.34,0,0,0-2.45,0l-1.68,3.82a.48.48,0,0,0,0,.39A3.59,3.59,0,0,0,832,601.79Z" transform="translate(-802.06 -502.97)"/><path class="cls-4" d="M833.52,603.11a2.93,2.93,0,0,1-1.41-1.53,4.36,4.36,0,0,1-2.67-2.41,3.86,3.86,0,0,0-.7.7c-.23.34-.54.78-.77,1.1a.54.54,0,0,0,.07.71l1,1a12.85,12.85,0,0,0,2.59,1.9c1.26.17,3.6.44,3.67.14C835.44,604.18,834.44,603.56,833.52,603.11Z" transform="translate(-802.06 -502.97)"/><path class="cls-7" d="M837,575.12c-.68,1.54-4.85,14.56-6.32,20.9a3.29,3.29,0,0,0,2.4,1c2.57-5,8.68-16,9.83-18.45,2.08-3.1,4.36-20.78,4.28-24.08-.08-3.57-2.39-6.4-5.16-6.34s-5.44,2.94-5.36,6.5C836.72,557,837.46,574.08,837,575.12Z" transform="translate(-802.06 -502.97)"/><path class="cls-8" d="M849.09,528.14h-1.35a3.3,3.3,0,0,1-6,0h-1.22a2.32,2.32,0,0,0-2.32,2.25c-.09,3.27-.24,7.5-.61,13.19-.34,5.16-1.52,6.77-.86,13.41,0,0,11.21,1.06,15.28-1a66,66,0,0,0,.4-13.95c-.38-4.52-.76-9.14-1-11.76a2.53,2.53,0,0,0-.85-1.63A2.55,2.55,0,0,0,849.09,528.14Z" transform="translate(-802.06 -502.97)"/><path class="cls-9" d="M39,16h2.35a0,0,0,0,1,0,0v5.43a0,0,0,0,1,0,0h-.16A2.19,2.19,0,0,1,39,19.2V16A0,0,0,0,1,39,16Z"/><polygon class="cls-3" points="44.38 25.17 40.05 25.17 41.3 20.86 44.25 21.22 44.38 25.17"/><path class="cls-2" d="M846.31,524.2l-2.95-.37-.58,2c.66.75,1.64,1.9,2.71,1.9a1.77,1.77,0,0,0,.93-.27Z" transform="translate(-802.06 -502.97)"/><path class="cls-3" d="M845.47,526.2h0a3.61,3.61,0,0,1-3.61-3.6v-4H848a31.28,31.28,0,0,1-.45,5.24C847.26,525.42,846.48,526.2,845.47,526.2Z" transform="translate(-802.06 -502.97)"/><path class="cls-3" d="M842.91,521.84c0,.78-.37,1.42-.83,1.42s-1-1-1-1.81a.92.92,0,0,1,1-1C842.54,520.42,842.91,521.06,842.91,521.84Z" transform="translate(-802.06 -502.97)"/><path class="cls-9" d="M848.67,516.58a10.33,10.33,0,0,1-3.21.22h-2.09a2.27,2.27,0,0,0-2.27,2.27v.49l.67.87.65,1h.09a.75.75,0,0,0,.74-.71,1.18,1.18,0,0,1,1.14-1.18h1.85c1.12,0,1.71.6,1.71,1.44l-.06.72S849.57,520.32,848.67,516.58Z" transform="translate(-802.06 -502.97)"/><path class="cls-2" d="M857.86,567.6s-1.74-1.31-1.52-2,.49-1.07,1.47-.78a7.31,7.31,0,0,1,2.81,1.8,5.6,5.6,0,0,1,1.14,2.41c-.17.75-1.17-.56-1.69-1.18s-1.15-1.25-1.38-.92.85,1.43.72,1.89S857.86,567.6,857.86,567.6Z" transform="translate(-802.06 -502.97)"/><line class="cls-10" x1="91.7" y1="91.85" x2="44.85" y2="55.22"/><path class="cls-3" d="M840.05,539.58a22.39,22.39,0,0,0,2.18,9.6c2.11,5.24,9.9,12.31,9.15,11.58a.74.74,0,0,1-.93,1.15c-4.18-2.74-9.24-6.83-11.52-10.9l-1.17-2c-3.49-6.93-3.11-14.56-.9-19a2.59,2.59,0,0,1,3.47-1.17C843.51,530.32,840.14,533,840.05,539.58Z" transform="translate(-802.06 -502.97)"/><path class="cls-3" d="M852.91,561.82s-1.41-1.65-2.06-1.39-1,.56-.69,1.52a7.47,7.47,0,0,0,2,2.68,5.62,5.62,0,0,0,2.48,1c.73-.22-.64-1.14-1.28-1.61s-1.33-1.07-1-1.32,1.48.76,1.93.6S852.91,561.82,852.91,561.82Z" transform="translate(-802.06 -502.97)"/><path class="cls-11" d="M929.18,601.82a1.05,1.05,0,0,0-1.07-1h-2.94a1.14,1.14,0,0,1-1.13-1c0-.43-.22-.84-.69-.84h-6a1,1,0,0,0-1.05,1,1,1,0,0,0,1,1h.25a.85.85,0,0,1,.23,0,.83.83,0,0,1,.56,1,.84.84,0,0,1-.81.58h-1.13a1,1,0,0,0-1,1,1,1,0,0,0,1,1h10.31a1,1,0,0,0,1-1.15.49.49,0,0,1,.47-.58h0A1,1,0,0,0,929.18,601.82Z" transform="translate(-802.06 -502.97)"/><path class="cls-11" d="M933,602.8H932a.9.9,0,0,0-.9.9h0a.9.9,0,0,0,.9.9H933a.9.9,0,0,0,.9-.9h0A.9.9,0,0,0,933,602.8Z" transform="translate(-802.06 -502.97)"/><path class="cls-11" d="M913.63,600.91h-1.24a1,1,0,0,1-1-1h0a1,1,0,0,1,1-1h1.24a1,1,0,0,1,1,1h0A1,1,0,0,1,913.63,600.91Z" transform="translate(-802.06 -502.97)"/><path class="cls-12" d="M893.32,595.27a17.91,17.91,0,0,1,3.32,6.78,14.94,14.94,0,0,1-.25,8.64.26.26,0,0,0-.08.19c0,.12.15.2.17.21a.85.85,0,0,0,.69,0,9.4,9.4,0,0,0,3-1.67,26.15,26.15,0,0,1,5-3.64,13.84,13.84,0,0,0-2.63-6.91,7.5,7.5,0,0,0-3.23-2.91c-.85-.33-1.57-.36-3.45-1-.77-.26-1.39-.5-1.8-.67" transform="translate(-802.06 -502.97)"/></g></svg>