<?xml version="1.0" encoding="utf-8"?>
<!-- Generator: Adobe Illustrator 25.0.0, SVG Export Plug-In . SVG Version: 6.00 Build 0)  -->
<svg version="1.1" id="Camada_1" xmlns="http://www.w3.org/2000/svg" xmlns:xlink="http://www.w3.org/1999/xlink" x="0px" y="0px"
	 viewBox="0 0 40 40" style="enable-background:new 0 0 40 40;" xml:space="preserve">
<style type="text/css">
	.st0{fill:none;stroke:#E54343;stroke-width:1.5;stroke-miterlimit:10;}
</style>
<path class="st0" d="M34.8,33.4H5.2c-1.1,0-2-0.9-2-2V9.5c0-1.1,0.9-2,2-2h29.5c1.1,0,2,0.9,2,2v21.9C36.7,32.6,35.8,33.4,34.8,33.4
	z"/>
<path class="st0" d="M19.2,23.1l-11-1.4c-1.1-0.1-1.8-1.1-1.7-2.2l1-7.6c0.1-1.1,1.1-1.8,2.2-1.7l11,1.4c1.1,0.1,1.8,1.1,1.7,2.2
	l-1,7.6C21.3,22.5,20.3,23.2,19.2,23.1z"/>
<path class="st0" d="M31.7,30.8H20.6c-1.1,0-2-0.9-2-2v-7.7c0-1.1,0.9-2,2-2h11.1c1.1,0,2,0.9,2,2v7.7
	C33.6,29.9,32.8,30.8,31.7,30.8z"/>
</svg>
