<svg width="40" height="40" viewBox="0 0 40 40" fill="none" xmlns="http://www.w3.org/2000/svg"> <g clip-path="url(#clip0)"> <path d="M37.6563 21.7188H34.7131V17.5C34.7131 16.3592 33.8936 15.4066 32.8125 15.1988V7.0325C32.8125 5.48102 31.5502 4.21875 29.9987 4.21875H19.9219C19.4905 4.21875 19.1406 4.56852 19.1406 5C19.1406 5.43148 19.4905 5.78125 19.9219 5.78125H29.9987C30.6887 5.78125 31.25 6.34258 31.25 7.0325V15.1562H21.1198C19.8274 15.1562 18.776 16.2077 18.776 17.5V22.4397H1.56252V7.0325C1.56252 6.34258 2.12384 5.78125 2.81384 5.78125H12.8906C13.322 5.78125 13.6719 5.43148 13.6719 5C13.6719 4.56852 13.322 4.21875 12.8906 4.21875H2.81384C1.26228 4.21875 1.52588e-05 5.48102 1.52588e-05 7.0325V24.9441C1.52588e-05 26.4955 1.26228 27.7579 2.81384 27.7579H12.449V30.5753C12.449 32.1134 11.6714 33.5202 10.369 34.3384C10.0742 34.5237 9.93752 34.8816 10.0338 35.2162C10.1302 35.5508 10.4363 35.7812 10.7845 35.7812H37.6563C38.9486 35.7812 40 34.7298 40 33.4374V24.0625C40 22.7702 38.9486 21.7188 37.6563 21.7188ZM21.1198 16.7188H32.3693C32.8001 16.7188 33.1506 17.0692 33.1506 17.5V21.7188H32.0313C30.7389 21.7188 29.6875 22.7702 29.6875 24.0625V33.4375C29.6875 33.7114 29.7352 33.9742 29.8219 34.2188H21.1198C20.689 34.2188 20.3385 33.8683 20.3385 33.4375V17.5C20.3385 17.0692 20.689 16.7188 21.1198 16.7188ZM1.56252 24.9441V24.0021H18.776V26.1953H13.2302H2.81384C2.12384 26.1954 1.56252 25.6341 1.56252 24.9441ZM14.0115 30.5753V27.7579H18.776V33.4375C18.776 33.7114 18.8237 33.9742 18.9104 34.2188H12.7852C13.572 33.1899 14.0115 31.9198 14.0115 30.5753ZM38.4375 33.4375C38.4375 33.8683 38.087 34.2188 37.6563 34.2188H32.0313C31.6005 34.2188 31.25 33.8683 31.25 33.4375V24.0625C31.25 23.6317 31.6005 23.2812 32.0313 23.2812H37.6563C38.087 23.2812 38.4375 23.6317 38.4375 24.0625V33.4375Z" fill="#a6dbed"></path> <path d="M4.53127 8.95422C4.09986 8.95422 3.75002 9.30399 3.75002 9.73547V18.4855C3.75002 18.917 4.09986 19.2667 4.53127 19.2667H11.4063C11.8377 19.2667 12.1875 18.917 12.1875 18.4855V9.73547C12.1875 9.30399 11.8377 8.95422 11.4063 8.95422H4.53127ZM10.625 17.7042H5.31252V10.5167H10.625V17.7042Z" fill="#a6dbed"></path> <path d="M15.1563 10.5167H23.0469C23.4783 10.5167 23.8281 10.167 23.8281 9.73547C23.8281 9.30399 23.4783 8.95422 23.0469 8.95422H15.1563C14.7249 8.95422 14.375 9.30399 14.375 9.73547C14.375 10.167 14.7249 10.5167 15.1563 10.5167Z" fill="#a6dbed"></path> <path d="M15.1563 18.0165C15.3617 18.0165 15.5633 17.9337 15.7085 17.7884C15.8538 17.6423 15.9375 17.4415 15.9375 17.2352C15.9375 17.0298 15.8539 16.8282 15.7085 16.6829C15.5633 16.5376 15.3617 16.454 15.1563 16.454C14.9508 16.454 14.7492 16.5376 14.6039 16.6829C14.4586 16.8282 14.375 17.0298 14.375 17.2352C14.375 17.4407 14.4585 17.6423 14.6039 17.7884C14.7492 17.9337 14.9508 18.0165 15.1563 18.0165Z" fill="#a6dbed"></path> <path d="M15.1563 14.2667H18.086C18.5174 14.2667 18.8672 13.917 18.8672 13.4855C18.8672 13.054 18.5174 12.7042 18.086 12.7042H15.1563C14.7249 12.7042 14.375 13.054 14.375 13.4855C14.375 13.917 14.7249 14.2667 15.1563 14.2667Z" fill="#a6dbed"></path> <path d="M34.8438 31.0938C34.6383 31.0938 34.4367 31.1773 34.2914 31.3227C34.1461 31.468 34.0625 31.6695 34.0625 31.875C34.0625 32.0805 34.146 32.282 34.2914 32.4273C34.4367 32.5726 34.6383 32.6562 34.8438 32.6562C35.0492 32.6562 35.2508 32.5727 35.396 32.4273C35.5414 32.282 35.625 32.0805 35.625 31.875C35.625 31.6695 35.5414 31.468 35.396 31.3227C35.2508 31.1773 35.0492 31.0938 34.8438 31.0938Z" fill="#a6dbed"></path> <path d="M26.7446 32.6562C26.95 32.6562 27.1516 32.5727 27.2968 32.4273C27.4422 32.282 27.5258 32.0805 27.5258 31.875C27.5258 31.6695 27.4422 31.468 27.2968 31.3227C27.1516 31.1773 26.95 31.0938 26.7446 31.0938C26.5391 31.0938 26.3375 31.1773 26.1922 31.3227C26.0469 31.468 25.9633 31.6695 25.9633 31.875C25.9633 32.0805 26.0468 32.282 26.1922 32.4273C26.3375 32.5727 26.5391 32.6562 26.7446 32.6562Z" fill="#a6dbed"></path> <path d="M16.4063 5.78125C16.6117 5.78125 16.8133 5.69766 16.9585 5.55234C17.1039 5.40703 17.1875 5.20547 17.1875 5C17.1875 4.79453 17.1039 4.59297 16.9585 4.44766C16.8133 4.30234 16.6117 4.21875 16.4063 4.21875C16.2008 4.21875 15.9992 4.30234 15.8539 4.44766C15.7086 4.59297 15.625 4.79453 15.625 5C15.625 5.20547 15.7085 5.40703 15.8539 5.55234C15.9993 5.69766 16.2008 5.78125 16.4063 5.78125Z" fill="#a6dbed"></path> </g> <defs> <clipPath id="clip0"> <rect width="40" height="40" fill="white"></rect> </clipPath> </defs> </svg>