<?xml version="1.0" encoding="utf-8"?>
<!-- Generator: Adobe Illustrator 25.0.0, SVG Export Plug-In . SVG Version: 6.00 Build 0)  -->
<svg version="1.1" id="Camada_1" xmlns="http://www.w3.org/2000/svg" xmlns:xlink="http://www.w3.org/1999/xlink" x="0px" y="0px"
	 viewBox="0 0 38 53.8" style="enable-background:new 0 0 38 53.8;" xml:space="preserve">
<style type="text/css">
	.st0{fill:#07E67F;}
</style>
<path class="st0" d="M25,0.1c1.5,0.1,8.6,0.7,11.6,6.1c2.5,4.4,0.8,9.3,0.7,9.7c-2,5.6-6.9,5.2-13.6,12.7c-3.5,3.9-5.3,6-6.1,9.4
	c-1.2,5.1,0.3,10.9-2.4,14.3c-0.7,0.9-1.3,1.2-1.8,1.3c-2,0.7-4.2-0.7-5-1.3C5.5,50.4,1.7,44.9,0.6,35c-0.8-7.6-1.7-15.7,3.5-23.5
	C8.3,5.4,16.2-0.7,25,0.1z"/>
</svg>
