<?xml version="1.0" encoding="utf-8"?>
<!-- Generator: Adobe Illustrator 25.0.0, SVG Export Plug-In . SVG Version: 6.00 Build 0)  -->
<svg version="1.1" id="Camada_1" xmlns="http://www.w3.org/2000/svg" xmlns:xlink="http://www.w3.org/1999/xlink" x="0px" y="0px"
	 viewBox="0 0 512.2 327.9" style="enable-background:new 0 0 512.2 327.9;" xml:space="preserve">
<style type="text/css">
	.st0{fill:none;stroke:#C9C9C9;stroke-width:0.76;stroke-miterlimit:10;}
	.st1{fill:#D9EBEE;}
	.st2{fill:none;stroke:#C9C9C9;stroke-width:0.86;stroke-miterlimit:10;}
	.st3{fill:#06D2B3;}
	.st4{fill:#1E2D64;}
	.st5{fill:#FFFFFF;}
	.st6{fill:#05C3DA;}
	.st7{opacity:0.4;fill:#6C9BAA;enable-background:new    ;}
	.st8{fill:url(#SVGID_1_);}
	.st9{fill:#D2AFFF;}
	.st10{fill:none;stroke:#FFFFFF;stroke-width:2.8;stroke-linecap:round;stroke-miterlimit:10;}
	.st11{fill:#A6DBED;}
	.st12{fill:none;stroke:#FFFFFF;stroke-width:1.87;stroke-linecap:round;stroke-miterlimit:10;}
	.st13{fill:#0F1446;}
	.st14{fill:none;stroke:#D2AFFF;stroke-width:0.86;stroke-miterlimit:10;}
	.st15{fill:none;stroke:#C9C9C9;stroke-width:1.73;stroke-miterlimit:10;}
	.st16{fill:none;stroke:#C9C9C9;stroke-width:1.73;stroke-linecap:round;stroke-miterlimit:10;}
	.st17{fill:#FA968C;}
	.st18{fill:#FA870A;}
	.st19{fill:#FAB9AF;}
	.st20{fill:#46738C;}
	.st21{fill:#1C9585;}
	.st22{fill:#177D74;}
	.st23{fill:#39AE96;}
	.st24{fill:#FFA50A;}
	.st25{fill:#3C5A73;}
	.st26{fill:#FFA0BE;}
	.st27{fill:#F57A2F;}
	.st28{fill:#0091C8;}
	.st29{fill:#0073AA;}
	.st30{fill:#00558C;}
	.st31{fill:#FF8C46;}
	.st32{fill:#FF82AA;}
	.st33{fill:none;stroke:#41B4E6;stroke-width:1.3;stroke-linecap:round;stroke-miterlimit:10;}
	.st34{fill:none;stroke:#A8E5FF;stroke-width:1.3;stroke-linecap:round;stroke-miterlimit:10;}
	.st35{fill:url(#SVGID_2_);}
	.st36{fill:none;stroke:#C9C9C9;stroke-width:1.3;stroke-linecap:round;stroke-miterlimit:10;}
	.st37{fill:#41B4E6;}
	.st38{fill:#AAC85A;}
	.st39{fill:#82BE50;}
	.st40{fill:#A56941;}
	.st41{fill:none;stroke:#C9C9C9;stroke-width:1.3;stroke-miterlimit:10;}
	.st42{fill:#FFF0F2;}
	.st43{fill:#965028;}
	.st44{fill:#EB7731;}
	.st45{fill:none;stroke:#05C3DA;stroke-width:2;stroke-miterlimit:10;}
</style>
<g id="BACKGROUND">
	<path class="st0" d="M191,233.4h-1.4c0.4-1.6,0.6-3.2,0.6-4.8c0-12.3-11.4-22.2-25.4-22.2c-13.9,0-25.1,9.7-25.4,21.7
		c-10.4,4.7-17.7,14.7-17.7,26.4c0,16.1,13.9,29.2,31,29.2c7.1,0,13.9-2.3,19.5-6.5c5.6,3.6,12.1,5.5,18.7,5.4c16.6,0,30-11,30-24.6
		S207.5,233.4,191,233.4z"/>
	<line class="st0" x1="172.2" y1="245.1" x2="172.2" y2="309.8"/>
	<polyline class="st0" points="142.4,254.8 172.2,269.3 196.7,255.6 	"/>
	<polyline class="st0" points="158.3,229.1 172.2,254.8 183.4,243.8 	"/>
	<path class="st1" d="M185.7,103L185.7,103c-1.2,0-2.1-0.9-2.1-2.1c0-0.3,0-0.5,0.1-0.8c0.4-1.3,0.6-2.7,0.3-4.1
		c-0.8-4-4.3-7-8.4-6.9h-45.2c-4.1,0-7.7,2.9-8.4,7c-0.8,4.5,2.3,8.8,6.9,9.6c0.4,0.1,0.9,0.1,1.4,0.1h0.5c3.3,0,6,2.7,6,6
		c0,0.1,0,0.1,0,0.2l0,0l0,0c0,5,4,9,9,9h40c5,0,9-4,9-9l0,0C194.7,107,190.7,103,185.7,103z"/>
	<path class="st1" d="M66.2,165.4L66.2,165.4c-1.2,0-2.1-1-2.1-2.1c0-0.3,0-0.5,0.1-0.7c0.4-1.3,0.6-2.7,0.3-4.1
		c-0.8-4-4.3-7-8.4-6.9H10.9c-4.2-0.1-7.7,2.9-8.4,7c-0.8,4.5,2.3,8.8,6.8,9.6c0.5,0.1,0.9,0.1,1.4,0.1h0.5c3.3,0,6,2.7,6,6
		c0,0.1,0,0.1,0,0.2v0.1l0,0c0,5,4,9,9,9c0,0,0,0,0,0h40c5,0,9-4,9-9l0,0C75.2,169.5,71.2,165.4,66.2,165.4
		C66.2,165.4,66.2,165.4,66.2,165.4z"/>
	<path class="st2" d="M494,225.6c-1.2-1.2-3.8-1.2-6.7-0.7c-2.6,0.5-5.1-1.3-5.6-3.9c-0.2-1.2,0-2.3,0.6-3.3
		c4.6-7.5,9.2-16.3,6.8-18.7c-2.2-2.2-10.9,0.6-16.7,2.8c-2.5,1-5.3-0.3-6.2-2.8c-0.1-0.3-0.2-0.5-0.2-0.8c-1.8-9-5.6-25.5-10-25.5
		s-8.3,16.5-10,25.5c-0.5,2.6-3,4.3-5.7,3.8c-0.2,0-0.5-0.1-0.7-0.2c-6.2-2.3-15.8-5.3-18.2-2.9s2.2,11.2,6.8,18.7
		c1.4,2.3,0.7,5.2-1.6,6.6c-1,0.6-2.2,0.8-3.4,0.6c-2.9-0.5-5.5-0.5-6.7,0.7c-4.9,4.9,2.4,20.2,16.3,34.1c2.4,2.4,4.9,4.6,7.3,6.6
		c1.2,1,1.9,2.6,1.7,4.1c-0.2,2.4,0.2,4.3,1.5,5.5c2,2,5.6,2,10.2,0.4c1-0.4,2.2-0.4,3.2,0c4.6,1.6,8.2,1.6,10.2-0.4
		c1.2-1.2,1.7-3.1,1.5-5.5c-0.2-1.6,0.5-3.1,1.7-4.1c2.5-2.1,5-4.3,7.3-6.6C491.7,245.8,499,230.5,494,225.6z"/>
	<line class="st2" x1="455.4" y1="198.1" x2="455.4" y2="311.1"/>
	<polyline class="st2" points="470.6,213.6 455.4,228.8 440.2,213.6 	"/>
	<polyline class="st2" points="470.6,242.1 455.4,257.2 440.2,242.1 	"/>
	<path class="st1" d="M499.5,299.8c0-6.4-5.2-11.7-11.7-11.7l0,0H342.4v23.3h145.4C494.3,311.5,499.5,306.3,499.5,299.8L499.5,299.8
		z"/>
	<path class="st2" d="M465.6,33.6c-0.1-3.3-2.9-5.9-6.2-5.9c-7.6,0-13.2,0-17.1,0c-3.3,0-6.1-2.5-6.5-5.8c-0.3-2.5-1.3-4.9-4-4.9
		h-34.9c-3.3-0.1-6,2.5-6.1,5.8c-0.1,3.3,2.5,5.9,5.8,6c0,0,0.1,0,0.1,0h1.5c0.4,0,0.9,0.1,1.3,0.2c2.5,0.8,4,3.4,3.2,6c0,0,0,0,0,0
		c-0.7,2-2.6,3.4-4.7,3.3h-6.6c-3.1,0-5.7,2.4-5.8,5.6c0,3.1,2.4,5.7,5.5,5.7c0,0,0.1,0,0.1,0h59.7c3.2,0.1,5.8-2.4,5.8-5.6
		c0-0.4,0-0.7-0.1-1.1c-0.3-1.5,0.7-3.1,2.3-3.4c0.2,0,0.3,0,0.5-0.1h0.2C462.9,39.6,465.6,36.9,465.6,33.6z"/>
	<path class="st2" d="M487.9,39.3h-6.3c-2.9,0-5.2,2.3-5.2,5.2l0,0c0,2.9,2.3,5.2,5.2,5.2h6.3c2.9,0,5.2-2.3,5.2-5.2l0,0
		C493.1,41.6,490.8,39.3,487.9,39.3L487.9,39.3z"/>
	<path class="st2" d="M375.5,28.4h-7.2c-3.1,0-5.6-2.5-5.6-5.6l0,0c0-3.1,2.5-5.6,5.6-5.6h7.2c3.1,0,5.6,2.5,5.6,5.6l0,0l0,0
		C381.1,25.8,378.6,28.4,375.5,28.4z"/>
	<path class="st2" d="M493.2,117.6v-5.9c0-3.5-2.8-6.3-6.3-6.3h-0.2c-2.7,0-5.1-1.7-6-4.2c-0.4-1-0.7-1.9-1.2-2.8
		c-1.1-2.4-0.7-5.3,1.2-7.2l0.2-0.1c2.5-2.5,2.5-6.5,0-8.9l-4.2-4.1c-2.5-2.5-6.5-2.5-8.9,0c0,0,0,0,0,0l-0.1,0.1
		c-1.9,1.9-4.8,2.4-7.2,1.2c-0.9-0.4-1.9-0.8-2.8-1.2c-2.5-0.9-4.2-3.3-4.2-6v-0.2c0-3.5-2.8-6.3-6.3-6.3c0,0,0,0,0,0h-5.9
		c-3.5,0-6.3,2.8-6.3,6.3c0,0,0,0,0,0v0.2c0,2.7-1.7,5.1-4.2,6c-1,0.4-1.9,0.8-2.8,1.2c-2.4,1.1-5.3,0.7-7.2-1.2l-0.1-0.1
		c-2.5-2.5-6.5-2.5-8.9,0c0,0,0,0,0,0l-4.1,4.2c-2.5,2.5-2.5,6.5,0,8.9l0.2,0.1c1.9,1.9,2.4,4.8,1.2,7.2c-0.4,0.9-0.8,1.9-1.2,2.8
		c-0.9,2.5-3.3,4.2-6,4.2h-0.2c-3.5,0-6.3,2.8-6.3,6.3v0v5.9c0,3.5,2.8,6.3,6.3,6.3l0,0h0.2c2.7,0,5.1,1.7,6,4.2
		c0.3,1,0.7,1.9,1.2,2.8c1.1,2.4,0.7,5.3-1.2,7.2l-0.2,0.1c-2.5,2.5-2.5,6.5,0,8.9l4.2,4.1c2.5,2.5,6.5,2.5,8.9,0c0,0,0,0,0,0
		l0.1-0.1c1.9-1.9,4.8-2.4,7.2-1.2c0.9,0.4,1.9,0.8,2.8,1.2c2.5,0.9,4.2,3.3,4.2,6v0.2c0,3.5,2.8,6.3,6.3,6.3c0,0,0,0,0,0h5.9
		c3.5,0,6.3-2.8,6.3-6.3c0,0,0,0,0,0v-0.2c0-2.7,1.7-5.1,4.2-6c1-0.4,1.9-0.8,2.8-1.2c2.4-1.2,5.3-0.7,7.2,1.2l0.1,0.1
		c2.5,2.5,6.5,2.5,8.9,0c0,0,0,0,0,0l4.2-4.1c2.5-2.5,2.5-6.5,0-8.9l-0.2-0.1c-1.9-1.9-2.4-4.8-1.2-7.2c0.4-0.9,0.8-1.9,1.2-2.8
		c0.9-2.5,3.3-4.2,6-4.2h0.2C490.4,123.9,493.2,121.1,493.2,117.6z"/>
	
		<ellipse transform="matrix(0.7071 -0.7071 0.7071 0.7071 49.0053 347.6463)" class="st2" cx="444.1" cy="114.7" rx="25.5" ry="25.5"/>
	<path class="st0" d="M184.8,173.8v-2.8c0-1.7-1.3-3-3-3h-0.1c-1.3,0-2.4-0.8-2.8-2c-0.2-0.5-0.4-0.9-0.6-1.3
		c-0.5-1.1-0.3-2.5,0.6-3.4l0.1-0.1c1.2-1.2,1.2-3.1,0-4.2l-2-2c-1.2-1.1-3-1.1-4.2,0l-0.1,0.1c-0.9,0.9-2.3,1.1-3.4,0.6
		c-0.4-0.2-0.9-0.4-1.3-0.6c-1.2-0.4-2-1.5-2-2.8v-0.1c0-1.7-1.3-3-3-3h-2.7c-1.7,0-3,1.3-3,3v0.1c0,1.3-0.8,2.4-2,2.8
		c-0.5,0.2-0.9,0.4-1.3,0.6c-1.1,0.5-2.5,0.3-3.4-0.6l-0.1-0.1c-1.2-1.1-3-1.1-4.2,0l-2,2c-1.2,1.2-1.2,3.1,0,4.2l0.1,0.1
		c0.9,0.9,1.1,2.3,0.6,3.4c-0.2,0.4-0.4,0.9-0.6,1.3c-0.4,1.2-1.5,2-2.8,2h-0.1c-1.7,0-3,1.3-3,3v2.8c0,1.7,1.3,3,3,3l0,0h0.1
		c1.3,0,2.4,0.8,2.8,2c0.2,0.5,0.4,0.9,0.6,1.3c0.5,1.1,0.3,2.5-0.6,3.4l-0.1,0.1c-1.1,1.2-1.1,3,0,4.2l2,2c1.2,1.1,3,1.1,4.2,0
		l0.1-0.1c0.9-0.9,2.3-1.1,3.4-0.6c0.4,0.2,0.9,0.4,1.3,0.5c1.2,0.4,2,1.6,2,2.8v0.1c0,1.7,1.3,3,3,3h2.8c1.7,0,3-1.3,3-3v-0.1
		c0-1.3,0.8-2.4,2-2.8c0.4-0.2,0.9-0.4,1.3-0.5c1.1-0.5,2.5-0.3,3.4,0.6l0.1,0.1c1.2,1.1,3,1.1,4.2,0l2-2c1.1-1.2,1.1-3,0-4.2
		l-0.1-0.1c-0.9-0.9-1.1-2.3-0.6-3.4c0.2-0.4,0.4-0.9,0.6-1.3c0.4-1.2,1.5-2,2.8-2h0.1C183.5,176.8,184.8,175.5,184.8,173.8z"/>
	<circle class="st0" cx="161.7" cy="172.4" r="12"/>
	<path class="st0" d="M145.7,152.1l0.3-1.9c0.1-1.1-0.7-2.2-1.8-2.3h-0.1c-0.9-0.1-1.6-0.8-1.7-1.7c-0.1-0.3-0.2-0.7-0.3-1
		c-0.3-0.8,0-1.8,0.7-2.3h0.1c0.9-0.7,1.1-2,0.4-2.9c0,0,0,0,0,0l-1.2-1.6c-0.7-0.9-2-1.1-2.9-0.4l0,0c-0.7,0.5-1.7,0.6-2.4,0.1
		c-0.3-0.2-0.6-0.4-0.9-0.5c-0.8-0.4-1.2-1.3-1.1-2.1v-0.1c0.2-1.1-0.6-2.2-1.8-2.3c0,0,0,0,0,0l-1.9-0.2c-1.1-0.2-2.2,0.6-2.4,1.8
		v0.1c-0.1,0.9-0.8,1.6-1.6,1.8c-0.3,0.1-0.7,0.2-1,0.3c-0.8,0.3-1.8,0-2.3-0.7l0,0c-0.7-0.9-2-1.1-2.9-0.4c0,0,0,0,0,0l-1.5,1.2
		c-0.9,0.7-1.1,2-0.4,2.9c0,0,0,0,0,0v0.1c0.5,0.7,0.6,1.7,0.1,2.4c-0.2,0.3-0.4,0.6-0.5,0.9c-0.4,0.8-1.3,1.2-2.1,1.1h-0.1
		c-1.1-0.2-2.2,0.6-2.3,1.8c0,0,0,0,0,0l-0.3,1.9c-0.2,1.1,0.6,2.2,1.8,2.3c0,0,0,0,0,0h0c0.9,0.1,1.6,0.8,1.8,1.6
		c0.1,0.3,0.2,0.6,0.3,1c0.3,0.8,0,1.8-0.7,2.3h-0.1c-0.9,0.7-1.1,2-0.4,2.9l1.2,1.5c0.7,0.9,2,1.1,2.9,0.4c0,0,0,0,0,0h0.1
		c0.7-0.5,1.7-0.6,2.4-0.1c0.3,0.2,0.6,0.4,0.9,0.5c0.8,0.4,1.2,1.3,1.1,2.1v0.1c-0.1,1.1,0.7,2.1,1.8,2.3l1.9,0.2
		c1.1,0.2,2.2-0.6,2.3-1.8c0,0,0,0,0,0v-0.1c0.1-0.9,0.8-1.6,1.7-1.8c0.3-0.1,0.7-0.2,1-0.3c0.8-0.3,1.8,0,2.3,0.7v0.1
		c0.7,0.9,2,1.1,2.9,0.4c0,0,0,0,0,0l1.6-1.1c0.9-0.7,1.1-2,0.4-2.9v-0.1c-0.5-0.7-0.6-1.7-0.1-2.4c0.2-0.3,0.3-0.6,0.5-0.9
		c0.4-0.8,1.2-1.2,2.1-1.1h0.1C144.6,154.1,145.6,153.3,145.7,152.1C145.7,152.2,145.7,152.2,145.7,152.1z"/>
	<circle class="st0" cx="129.8" cy="149" r="8.4"/>
	<path class="st1" d="M505.8,311.5h-23c-3.5,0-6.3-2.8-6.3-6.3l0,0c0-3.5,2.8-6.3,6.3-6.3h23c3.5,0,6.3,2.8,6.3,6.3l0,0
		C512.2,308.7,509.3,311.5,505.8,311.5z"/>
	<path class="st2" d="M103.3,219.2c-0.1-3.3-2.9-5.9-6.2-5.9H80.1c-3.3,0-6.1-2.5-6.5-5.8c-0.3-2.5-1.3-4.9-4-4.9H34.6
		c-3.3-0.1-6,2.5-6.1,5.8c-0.1,3.3,2.5,5.9,5.8,6c0,0,0.1,0,0.1,0h1.5c0.4,0,0.9,0.1,1.3,0.2c2.5,0.8,4,3.4,3.2,6c0,0,0,0,0,0
		c-0.7,2-2.6,3.4-4.7,3.3h-6.6c-3.1,0-5.7,2.5-5.8,5.6c-0.1,3.1,2.4,5.7,5.5,5.7c0,0,0.1,0,0.1,0h59.7c3.2,0.1,5.8-2.4,5.8-5.6
		c0-0.4,0-0.7-0.1-1.1c-0.3-1.5,0.7-3,2.2-3.4c0.2,0,0.3-0.1,0.5-0.1h0.2C100.7,225.3,103.4,222.5,103.3,219.2
		C103.3,219.2,103.3,219.2,103.3,219.2z"/>
	<path class="st2" d="M125.7,225h-6.3c-2.9,0-5.2,2.3-5.2,5.2l0,0c0,2.9,2.4,5.2,5.2,5.2h6.3c2.9,0,5.2-2.3,5.2-5.2l0,0
		C130.9,227.3,128.6,225,125.7,225z"/>
	<path class="st2" d="M13.2,214H6.1c-3.1,0-5.6-2.5-5.7-5.6c0,0,0,0,0,0l0,0c0-3.1,2.5-5.6,5.6-5.6h0h7.2c3.1,0,5.6,2.5,5.6,5.6l0,0
		l0,0C18.8,211.4,16.3,214,13.2,214z"/>
</g>
<g id="OBJECTS">
	<path class="st3" d="M180.3,77.9h254.9c6.2,0,11.2,5,11.2,11.2v177.2c0,6.2-5,11.2-11.2,11.2H180.3c-6.2,0-11.2-5-11.2-11.2V89.1
		C169.1,82.9,174.1,77.9,180.3,77.9z"/>
	<path class="st4" d="M435.2,89.1v177.1H180.3V89.1H435.2 M435.2,77.9H180.3c-6.2,0-11.2,5-11.2,11.2c0,0,0,0,0,0v177.1
		c0,6.2,5,11.2,11.2,11.2h254.9c6.2,0,11.2-5,11.2-11.2c0,0,0,0,0,0V89.1C446.5,82.9,441.4,77.9,435.2,77.9L435.2,77.9z"/>
	<path class="st5" d="M215.6,102.1h183.5c4.2,0,7.6,3.4,7.6,7.6v143.7c0,4.2-3.4,7.6-7.6,7.6H215.6c-4.2,0-7.6-3.4-7.6-7.6V109.7
		C208,105.5,211.4,102.1,215.6,102.1z"/>
	<path class="st6" d="M399.1,102.1H215.6c-4.2,0-7.6,3.4-7.6,7.6v14h198.7v-14C406.7,105.5,403.3,102.1,399.1,102.1
		C399.1,102.1,399.1,102.1,399.1,102.1z"/>
	<path class="st7" d="M244.4,138.7l65,18.8c2,0.6,3.1,2.6,2.5,4.6l-28.6,99.1c-0.6,2-2.6,3.1-4.6,2.5l-65-18.8
		c-2-0.6-3.1-2.6-2.5-4.6l28.6-99.1C240.4,139.3,242.4,138.2,244.4,138.7z"/>
	<linearGradient id="SVGID_1_" gradientUnits="userSpaceOnUse" x1="208.8232" y1="197.1495" x2="309.8387" y2="197.1495">
		<stop  offset="0" style="stop-color:#05C3DA"/>
		<stop  offset="1" style="stop-color:#07E67F"/>
	</linearGradient>
	<path class="st8" d="M242.2,134.6l65,18.8c2,0.6,3.1,2.6,2.5,4.6l-28.6,99.1c-0.6,2-2.6,3.1-4.6,2.5l-65-18.8
		c-2-0.6-3.1-2.6-2.5-4.6l28.6-99.1C238.2,135.2,240.2,134.1,242.2,134.6z"/>
	<path class="st9" d="M296,142.7v108.9h-73.3V142.7H296 M296.9,141.9h-75.1v110.6h75.1V141.9L296.9,141.9z"/>
	<line class="st10" x1="381.1" y1="108.4" x2="393.5" y2="108.4"/>
	<line class="st10" x1="381.1" y1="113.3" x2="393.5" y2="113.3"/>
	<line class="st10" x1="381.1" y1="118.2" x2="393.5" y2="118.2"/>
	<path class="st11" d="M362.9,118.3h-84.1c-2.7,0-4.9-2.2-4.9-4.9l0,0l0,0c0-2.7,2.2-4.9,4.9-4.9l0,0h84.1c2.7,0,4.9,2.2,4.9,4.9
		l0,0l0,0C367.8,116.1,365.6,118.3,362.9,118.3L362.9,118.3z"/>
	<line class="st12" x1="220.1" y1="110.7" x2="215.6" y2="115.2"/>
	<line class="st12" x1="220.1" y1="115.2" x2="215.6" y2="110.7"/>
	<path class="st12" d="M239.2,115.2L239.2,115.2c-1.2,0-2.2-1-2.2-2.2c0,0,0,0,0,0l0,0c0-1.2,1-2.2,2.2-2.2c0,0,0,0,0,0l0,0
		c1.2,0,2.2,1,2.2,2.2c0,0,0,0,0,0l0,0C241.4,114.1,240.4,115.1,239.2,115.2C239.2,115.2,239.2,115.2,239.2,115.2z"/>
	<line class="st12" x1="225.8" y1="112.9" x2="230.6" y2="112.9"/>
	<rect x="264.5" y="277.5" class="st13" width="93.7" height="21.3"/>
	<path class="st4" d="M387.3,311.5H234c0-7,5.7-12.7,12.7-12.7h128C381.6,298.8,387.3,304.5,387.3,311.5L387.3,311.5z"/>
	<path class="st14" d="M370.3,197.7h-54.7c-2.8,0-5-2.2-5-5l0,0c0-2.8,2.2-5,5-5h54.7c2.8,0,5,2.2,5,5l0,0
		C375.3,195.4,373.1,197.7,370.3,197.7z"/>
	<path class="st14" d="M370.3,215.8h-54.7c-2.8,0-5-2.2-5-5l0,0c0-2.8,2.2-5,5-5h54.7c2.8,0,5,2.2,5,5l0,0
		C375.3,213.6,373.1,215.8,370.3,215.8z"/>
	<path class="st14" d="M387.2,197.7L387.2,197.7c-2.8,0-5-2.2-5-5l0,0c0-2.8,2.2-5,5-5l0,0c2.8,0,5,2.2,5,5l0,0
		C392.2,195.4,390,197.7,387.2,197.7z"/>
	<path class="st14" d="M387.2,215.8L387.2,215.8c-2.8,0-5-2.2-5-5l0,0c0-2.8,2.2-5,5-5l0,0c2.8,0,5,2.2,5,5l0,0
		C392.2,213.6,390,215.8,387.2,215.8z"/>
	<path class="st14" d="M375.3,229.8c0,2.8-2.2,5-5,5h-54.7c-2.8,0-5-2.2-5-5l0,0c0-2.8,2.2-5,5-5h54.7
		C373.1,224.8,375.3,227,375.3,229.8L375.3,229.8z"/>
	<path class="st14" d="M375.3,248c0,2.8-2.2,5-5,5h-54.7c-2.8,0-5-2.2-5-5l0,0c0-2.8,2.2-5,5-5h54.7
		C373.1,243,375.3,245.2,375.3,248L375.3,248z"/>
	<path class="st14" d="M387.2,234.8L387.2,234.8c-2.8,0-5-2.2-5-5l0,0c0-2.8,2.2-5,5-5l0,0c2.8,0,5,2.2,5,5l0,0
		C392.2,232.6,390,234.8,387.2,234.8z"/>
	<path class="st14" d="M392.2,248c0,2.8-2.2,5-5,5l0,0c-2.8,0-5-2.2-5-5l0,0c0-2.8,2.2-5,5-5l0,0C390,243,392.2,245.2,392.2,248z"/>
	<line class="st15" x1="400.4" y1="327" x2="467.2" y2="327"/>
	<line class="st16" x1="253" y1="311.6" x2="114.7" y2="311.6"/>
	<path class="st17" d="M207.1,235.7c1.2,2.9,3.9,7.5,7.1,10.1c3.6,2.9,7.3,2.5,11.1,0c0.3-0.2,0.8-0.2,1,0.2c0,0,0,0,0,0
		c0.2,0.3,0.2,0.7-0.1,1c-8.6,8.2-18.5,1-23.8-9.1c-1.6-3,3-5.5,4.6-2.4L207.1,235.7L207.1,235.7z"/>
	<path class="st18" d="M210.1,241.2L210.1,241.2c-1.2-1.8-2.3-3.7-3.1-5.7c-0.7-1.3-2.3-1.7-3.5-1c-1.2,0.7-1.7,2.2-1.1,3.4
		c1,1.8,2.1,3.6,3.4,5.2C207.2,242.3,208.6,241.7,210.1,241.2z"/>
	<path class="st19" d="M206.1,253.7c1,0,1.9-0.8,1.9-1.9c0.1-1.3,0.1-2.5,0-3.8c-0.4-4.5-0.8-9-1-11.7c-0.1-1.3-1.2-2.2-2.4-2.2
		h-8.2c-1.4,0-2.5,1.1-2.5,2.5c-0.1,3.3-0.3,9.5-0.7,15l0,0c-0.1,1.1,0.7,2,1.8,2.1c0,0,0.1,0,0.1,0L206.1,253.7z"/>
	<path class="st17" d="M203.5,308.7c-0.9-1-1.1-3.3-1.1-5.4c0-0.7-0.6-1.3-1.3-1.3c-0.4,0-0.8,0.2-1,0.5l0,0v6.5
		C201.2,309.5,202.5,309.3,203.5,308.7z"/>
	<path class="st20" d="M203.3,308.6L203.3,308.6c-0.6,0.2-1.2,0.3-1.8,0.3c-0.5,0-1.1-0.1-1.6-0.2l-0.3,1.5
		c-0.1,0.4,0.2,0.8,0.6,0.8c0,0,0.1,0,0.1,0c2.1,0.1,7.5,0.2,7.6,0C208.6,309.9,205.6,309.5,203.3,308.6z"/>
	<path class="st21" d="M199.7,282.7c-0.3,7-0.3,14,0.1,20.9h2.7c1.4-6.2,2.6-18.2,2.9-20.1c0,0,0,0,0-0.1c1.5-6.7,2.3-19.6,2.2-22.3
		c-0.1-3.6-2.4-6.4-5.2-6.3c-2.8,0.1-4.9,3-4.9,6.6C197.6,263.6,199.8,281.7,199.7,282.7z"/>
	<path class="st22" d="M207.6,261.1c-0.1-3.6-2.4-6.4-5.2-6.3c-2.8,0.1-5,3-4.9,6.6c0,1.6,1.2,11.6,1.8,17.3
		c0.6-1.3,1.2-2.6,1.7-3.9c0.4-4.5,2.7-8.7,6.5-11.3C207.6,262.4,207.6,261.6,207.6,261.1z"/>
	<path class="st19" d="M187.6,307.7c-0.2-1.9,0.7-4.1,1.5-6.2l0,0c-0.3-0.7-1.1-1-1.8-0.7c-0.3,0.1-0.5,0.4-0.7,0.7l-1.7,3.8
		c-0.1,0.1-0.1,0.3,0,0.4C185.5,306.8,186.4,307.6,187.6,307.7z"/>
	<path class="st20" d="M189.1,309.1c-0.6-0.3-1.1-0.9-1.4-1.5c-1.2-0.4-2.2-1.3-2.7-2.4c-0.3,0.2-0.5,0.4-0.7,0.7l-0.8,1.1
		c-0.2,0.2-0.1,0.5,0.1,0.7l1,1c0.8,0.7,1.7,1.4,2.6,1.9c1.3,0.2,3.6,0.4,3.7,0.1C191,310.1,190,309.5,189.1,309.1z"/>
	<path class="st23" d="M192.6,281.1c-0.7,1.5-4.8,14.6-6.3,20.9c0.6,0.6,1.5,1,2.4,1c2.6-5,8.7-16,9.8-18.5
		c2.1-3.1,4.4-20.8,4.3-24.1c-0.1-3.6-2.4-6.4-5.2-6.3c-2.8,0.1-5.4,2.9-5.4,6.5C192.3,262.9,193,280,192.6,281.1z"/>
	<path class="st24" d="M204.6,234.1h-1.4c-0.7,1.7-2.7,2.4-4.4,1.6c-0.7-0.3-1.3-0.9-1.6-1.6h-1.2c-1.3,0-2.3,1-2.3,2.2
		c-0.1,3.3-0.2,7.5-0.6,13.2c-0.3,5.2-1.5,6.8-0.9,13.4c0,0,11.2,1.1,15.3-1c0.6-4.6,0.8-9.3,0.4-14c-0.4-4.5-0.8-9.1-1-11.8
		C206.9,235,205.9,234.1,204.6,234.1z"/>
	<path class="st17" d="M227.8,244.9c0,0-2.2-0.2-2.4,0.4s-0.4,1.1,0.6,1.6c1,0.4,2.2,0.6,3.3,0.5c0.9-0.1,1.7-0.5,2.5-1
		c0.4-0.7-1.2-0.4-2-0.3c-0.8,0.1-1.7,0.1-1.6-0.2c0.1-0.4,1.6-0.5,1.8-0.9C230,244.6,227.8,244.9,227.8,244.9z"/>
	<path class="st19" d="M198.1,236.8c3.6,8.1,21.2,7.5,26.5,7.6l0,0c0.4,0,0.7,0.3,0.7,0.8c0,0.9-1.1,0.8-4.7,1.5
		c-24.7,4.8-31.7-11.5-25.7-12.2C196.8,234.2,198.1,236.8,198.1,236.8z"/>
	<path class="st18" d="M200.8,239.8c-1.3-0.8-2.3-2-2.8-3.4v0.1l-0.2-0.4c-0.6-1.4-2.2-2.1-3.7-1.6h-0.1c-1,0.5-1.6,1.6-1.4,2.8
		c0,0.3,0.6,3.6,4.6,6.6C197.3,243.8,201.1,240,200.8,239.8z"/>
	<path class="st25" d="M196.7,224.9h2.3l0,0v5.4l0,0h-0.2c-1.2,0-2.2-1-2.2-2.2l0,0L196.7,224.9L196.7,224.9z"/>
	<polygon class="st19" points="202,234.1 197.7,234.1 198.9,229.8 201.9,230.1 	"/>
	<path class="st17" d="M201.9,230.2l-2.9-0.4l-0.6,2c0.7,0.8,1.6,1.9,2.7,1.9c0.3,0,0.7-0.1,0.9-0.3L201.9,230.2z"/>
	<path class="st19" d="M201,232.2L201,232.2c-2,0-3.6-1.6-3.6-3.6l0,0v-4h6.2c0,1.8-0.2,3.5-0.5,5.2
		C202.8,231.4,202,232.2,201,232.2z"/>
	<path class="st19" d="M198.5,227.8c0,0.8-0.4,1.4-0.8,1.4c-0.5,0-1-1-1-1.8c0-0.5,0.3-1,0.8-1c0.1,0,0.1,0,0.2,0
		C198.1,226.4,198.5,227,198.5,227.8z"/>
	<path class="st25" d="M204.2,222.5c-1.1,0.2-2.1,0.3-3.2,0.2h-2.1c-1.3,0-2.3,1-2.3,2.3v0.5l0.7,0.9l0.6,1h0.1
		c0.4,0,0.7-0.3,0.7-0.7c0-0.6,0.5-1.2,1.1-1.2h1.9c1.1,0,1.7,0.6,1.7,1.5l-0.1,0.7C203.5,227.6,205.1,226.3,204.2,222.5z"/>
	<path class="st19" d="M226.3,244.5c0,0-2.1-0.5-2.5,0s-0.5,1,0.3,1.6c1,0.6,2,1,3.2,1.1c0.9,0,1.8-0.2,2.6-0.6
		c0.5-0.6-1.2-0.6-2-0.6s-1.7-0.1-1.6-0.5s1.6-0.2,1.9-0.6S226.3,244.5,226.3,244.5z"/>
	<path class="st17" d="M308.8,217.3c-2.1,1.1-4.7,0.4-6-1.5c-3-3.9-3.6-13.6-3.8-18.5c0-0.4,0.2-0.8,0.6-0.8c0.4,0,0.8,0.2,0.8,0.6
		l0,0c0.6,2.9,1.1,5.4,1.7,7.8c0.6,2.1,2.8,9.8,4.6,8.6c2.3-1.5,4.6-8.2,4.3-7.2c0.6-1.3,2.1-2,3.4-1.4c1.2,0.5,1.9,1.9,1.5,3.2
		C315.6,209,312.6,215.5,308.8,217.3z"/>
	<path class="st26" d="M308,211.7c1.2-1.7,2.2-3.6,3-5.5l0,0c0-0.1,0.1-0.1,0.1-0.2c0.7-1.3,2.2-1.8,3.5-1.1s1.8,2.2,1.1,3.5
		c-0.6,1.1-1.2,2.2-1.9,3.2c-0.5,0.7-1.1,1.8-1.6,2.4C310.5,214,308.9,213.1,308,211.7z"/>
	<path class="st19" d="M310.7,230.1c0.1,0.5,0.4,0.9,0.9,1.1c3.2,1,8,1.6,13.2,2.1c0.7,0.1,1.4-0.5,1.4-1.2c0,0,0,0,0-0.1
		c0-2.1-0.9-6-1.1-10c-0.3-4.9-0.5-10.3-0.6-13.8c-0.1-2.1-1.8-3.7-3.8-3.7h-5.8c-2,0-3.6,1.5-3.8,3.4c-0.2,2.7-0.5,6.6-0.9,10.5
		C310.1,222.3,310.2,226.2,310.7,230.1z"/>
	<path class="st17" d="M318.1,273v5.1l0.5,2.5c0.1,0.4-0.2,0.8-0.6,0.8c0,0-0.1,0-0.1,0c-2.1,0.1-7.5,0.2-7.6,0
		c-0.7-1.1,2.4-1.5,4.6-2.4c2.2-0.9,0.7-9.4,0.7-9.4L318.1,273z"/>
	<path class="st27" d="M314.8,279.1L314.8,279.1c0.6,0.2,1.2,0.3,1.8,0.3c0.5,0,1.1-0.1,1.6-0.2l0.3,1.5c0.1,0.4-0.2,0.8-0.6,0.8
		c0,0-0.1,0-0.1,0c-2.1,0.1-7.5,0.2-7.6,0C309.5,280.4,312.6,280,314.8,279.1z"/>
	<path class="st28" d="M310.6,231.6c-0.1,3.6,1.3,26.2,4.1,26.2s5.9-22.4,5.9-26s-2.1-6.5-4.9-6.6C313,225.2,310.7,228,310.6,231.6z
		"/>
	<path class="st29" d="M318.5,253.1c0.3,7,0.3,14-0.1,20.9h-2.5c-1.4-6.2-2.8-18.2-3.1-20.1c0,0,0,0,0-0.1
		c-1.5-6.7-2.2-19.6-2.2-22.3c0.1-3.6,2.4-6.4,5.2-6.3c2.8,0.1,4.9,3,4.9,6.6C320.6,234,318.4,252.2,318.5,253.1z"/>
	<path class="st30" d="M317.1,244.9c0.6,1.5,1.2,3,1.7,4.5c0.6-5.7,1.8-16,1.8-17.6c0.1-3.6-2.1-6.5-4.9-6.6
		c-2.8-0.1-5.1,2.8-5.2,6.3c0,0.5,0,1.3,0,2.4C314.2,236.5,316.6,240.5,317.1,244.9z"/>
	<path class="st17" d="M324.1,273v5.1l0.5,2.5c0.1,0.4-0.2,0.8-0.6,0.8c0,0-0.1,0-0.1,0c-2.1,0.1-7.5,0.2-7.6,0
		c-0.7-1.1,2.4-1.5,4.6-2.4s0.7-9.4,0.7-9.4L324.1,273z"/>
	<path class="st31" d="M320.9,279.1L320.9,279.1c0.6,0.2,1.2,0.3,1.8,0.3c0.5,0,1.1-0.1,1.6-0.2l0.3,1.5c0.1,0.4-0.2,0.8-0.6,0.8
		c0,0-0.1,0-0.1,0c-2.1,0.1-7.5,0.2-7.6,0C315.6,280.4,318.7,280,320.9,279.1z"/>
	<path class="st28" d="M316.6,231.6c-0.1,3.6,1.3,26.2,4.1,26.2s5.3-22.5,5.3-26.1s-1.5-6.4-4.3-6.5S316.7,228,316.6,231.6z"/>
	<path class="st28" d="M324.5,253.1c0.3,7,0.3,14-0.1,20.9h-2.5c-1.4-6.2-2.8-18.2-3.1-20.1c0,0,0,0,0-0.1
		c-1.5-7.4-2.4-14.8-2.8-22.4c0.1-3.6,3-6.3,5.8-6.2s4.4,2.9,4.3,6.5C326,234,324.4,252.2,324.5,253.1z"/>
	<path class="st32" d="M311.2,206.7c0.1-1.2,1.1-2.2,2.4-2.2h1.4c0.8,1.7,2.7,2.4,4.4,1.6c0.7-0.3,1.3-0.9,1.6-1.6h1.2
		c1.2,0,2.3,1,2.3,2.2c0.1,3.3,0.2,8.2,0.6,13.9c0.3,5.1,1.8,7.5,1.1,12.8c0,0-13.5,1-15.8-1.6c-0.3-4.5-0.4-9-0.1-13.4
		C310.6,214,311,209.3,311.2,206.7z"/>
	<path class="st17" d="M298.3,195.3c0,0,0.1,2.5,0.7,2.9c0.6,0.3,1,0.2,1.5-0.6c0.5-1,0.7-2.1,0.7-3.2c-0.1-0.9-0.4-1.8-0.9-2.6
		c-0.6-0.4-0.3,1.4-0.2,2.2c0,0.8-0.2,1.2-0.6,1.1c-0.4-0.1-0.3-1.3-0.7-1.6S298.3,195.3,298.3,195.3z"/>
	<path class="st19" d="M324.9,208.8c-7.3,9.9-20.8,15.7-31,6.1c-0.3-0.3-0.3-0.7,0-1c0.2-0.3,0.6-0.3,0.9-0.1l0,0
		c4.7,2.7,9,3.9,14.4,1.6c4.5-1.9,8.5-5.8,11.4-9.6l0-0.1C322.8,203,326.9,206,324.9,208.8z"/>
	<path class="st26" d="M316.9,209.9c1.5-1.4,2.8-3,4-4.6c0,0,1-1.2,3.2-0.3c1,0.5,1.6,1.6,1.4,2.8c0,0.3-0.6,3.6-4.6,6.6
		C320.9,214.2,317.7,212.8,316.9,209.9z"/>
	<path class="st25" d="M318.1,199.8l-0.2,0l0,0l1.2-5.3l0,0l2.3,0.5l0,0l-0.7,3.2C320.5,199.3,319.3,200,318.1,199.8L318.1,199.8z"
		/>
	<polygon class="st19" points="316.2,204.5 320.5,204.5 319.3,200.2 316.3,200.6 	"/>
	<path class="st17" d="M316.3,200.6l3-0.4l0.6,2c-0.7,0.7-1.6,1.9-2.7,1.9c-0.3,0-0.7-0.1-0.9-0.3L316.3,200.6z"/>
	<path class="st19" d="M315.9,202.9L315.9,202.9c1.9,0.4,3.9-0.8,4.3-2.7c0,0,0,0,0,0l0.9-3.9l-6-1.3c-0.4,1.7-0.6,3.5-0.7,5.2
		C314.3,201.7,314.9,202.7,315.9,202.9z"/>
	<path class="st19" d="M319.3,199.2c-0.2,0.8,0.1,1.5,0.5,1.6s1.2-0.8,1.4-1.6c0.2-0.5-0.1-1-0.6-1.2c-0.1,0-0.1,0-0.2,0
		C320,197.9,319.5,198.4,319.3,199.2z"/>
	<path class="st25" d="M314.2,196.4c0-0.5,0-1,0.2-1.5l0,0c0.5-1.2,1.9-1.7,3-1.3l0.4,0.1l2,0.5c1.2,0.3,2,1.5,1.7,2.7l-0.1,0.5
		l-0.9,0.7l-0.8,0.8h-0.1c-0.4-0.1-0.6-0.5-0.6-0.8c0.1-0.6-0.2-1.2-0.9-1.4l-1.8-0.4c-1.1-0.2-1.8,0.2-2,1l-0.1,0.7L314.2,196.4z"
		/>
	<path class="st19" d="M293.3,212.6c0,0,0.1,2.2,0.8,2.4c0.7,0.2,1.2,0.2,1.5-0.8c0.3-1.1,0.3-2.2,0-3.3c-0.3-0.9-0.8-1.6-1.4-2.3
		c-0.7-0.3-0.2,1.3,0.1,2.1s0.4,1.6,0,1.7s-0.7-1.5-1.2-1.6S293.3,212.6,293.3,212.6z"/>
	<line class="st33" x1="320" y1="219.6" x2="336.7" y2="311.5"/>
	<line class="st33" x1="312" y1="311.5" x2="295.2" y2="219.6"/>
	<line class="st33" x1="297.2" y1="227" x2="321.4" y2="227"/>
	<line class="st33" x1="298.8" y1="238.1" x2="323.4" y2="238.1"/>
	<line class="st33" x1="301.1" y1="249.2" x2="325.4" y2="249.2"/>
	<line class="st33" x1="303.2" y1="260.3" x2="327.4" y2="260.3"/>
	<line class="st33" x1="305" y1="271.4" x2="329.4" y2="271.4"/>
	<line class="st33" x1="306.6" y1="282.2" x2="331.4" y2="282.2"/>
	<line class="st33" x1="309" y1="293.5" x2="333.4" y2="293.5"/>
	<line class="st33" x1="310.7" y1="304.6" x2="335.2" y2="304.6"/>
	<line class="st34" x1="295.2" y1="219.6" x2="278.5" y2="311.5"/>
	<line class="st34" x1="303.3" y1="311.5" x2="320" y2="219.6"/>
	<line class="st34" x1="318" y1="227" x2="293.9" y2="227"/>
	<line class="st34" x1="316.4" y1="238.1" x2="291.9" y2="238.1"/>
	<line class="st34" x1="314.2" y1="249.2" x2="289.9" y2="249.2"/>
	<line class="st34" x1="312" y1="260.3" x2="287.9" y2="260.3"/>
	<line class="st34" x1="310.3" y1="271.4" x2="285.8" y2="271.4"/>
	<line class="st34" x1="308.6" y1="282.2" x2="283.9" y2="282.2"/>
	<line class="st34" x1="306.2" y1="293.5" x2="281.8" y2="293.5"/>
	<line class="st34" x1="304.5" y1="304.6" x2="280.1" y2="304.6"/>
	<path class="st25" d="M320.3,195c0.1,1.1-3.9,2.5-4.9,2.7c-1.1,0.1-2.1-0.6-2.2-1.8c-0.1-1.1,0.6-2.1,1.8-2.2
		C315.9,193.5,320.2,193.9,320.3,195z"/>
	<rect x="310.8" y="141.9" class="st14" width="82.7" height="35.9"/>
	<path class="st7" d="M308.8,123.3l74.6-15c1.8-0.4,3.5,0.8,3.9,2.6l5.8,28.7c0.4,1.8-0.8,3.5-2.6,3.9l-74.6,15
		c-1.8,0.4-3.5-0.8-3.9-2.6l-5.8-28.7C305.9,125.4,307,123.7,308.8,123.3z"/>
	<linearGradient id="SVGID_2_" gradientUnits="userSpaceOnUse" x1="306.5529" y1="129.6999" x2="393.5056" y2="129.6999">
		<stop  offset="0" style="stop-color:#05C3DA"/>
		<stop  offset="1" style="stop-color:#07E67F"/>
	</linearGradient>
	<path class="st35" d="M309.2,119.6l74.6-15c1.8-0.4,3.5,0.8,3.9,2.6l5.8,28.7c0.4,1.8-0.8,3.5-2.6,3.9l-74.6,15
		c-1.8,0.4-3.5-0.8-3.9-2.6l-5.8-28.7C306.3,121.7,307.4,120,309.2,119.6z"/>
	<polyline class="st36" points="308,134.4 318,118.2 319.8,10.4 377.1,106 389.3,115.2 	"/>
	<path class="st37" d="M233.3,55.5c1.9,1.9,16.5,17.5,15.8,18c-0.8,0.5-17.9-12-19.8-13.9c-1.9-1.9-2.6-4.4-1.4-5.5
		S231.4,53.6,233.3,55.5z"/>
	<path class="st19" d="M253.8,75.6c-1.9-0.9-5.4-4.3-8.9-7.5l-0.9,2.3l5.6,5.2C251,76.2,252.5,76.2,253.8,75.6z"/>
	<path class="st31" d="M253.5,75.4c-1.3,0.4-2.6,0.5-3.9,0.2c0,0.4,0,1.5,0,1.9c0,0.3,0.2,0.5,0.5,0.5c0,0,8.6,0.1,8.6-0.2
		C258.6,75.5,254.1,75.7,253.5,75.4z"/>
	<path class="st19" d="M264.4,75.6c-1.9-0.9-5.4-4.3-8.9-7.5l-0.9,2.3l5.6,5.2C261.6,76.2,263.1,76.2,264.4,75.6z"/>
	<path class="st31" d="M264.1,75.4c-1.3,0.4-2.6,0.5-3.9,0.2c0,0.4,0,1.5,0,1.9c0,0.3,0.2,0.5,0.5,0.5c0,0,8.6,0.1,8.6-0.2
		C269.2,75.5,264.7,75.7,264.1,75.4z"/>
	<path class="st29" d="M239.8,59.5c1.2,1.2,11.9,9.6,17.2,13.3c0.7-0.5,1.3-1.1,1.8-1.7c-3.8-4.2-11.8-13.8-13.7-15.8
		c-2.1-3.1-17.8-11.6-20.9-12.8c-3.4-1.2-6.8-0.1-7.8,2.5c-1,2.6,0.8,6.2,4.1,7.4C222.8,53.1,239,58.6,239.8,59.5z"/>
	<path class="st30" d="M225.7,43.1c-0.6-0.3-1-0.5-1.3-0.6c-3.4-1.2-6.8-0.1-7.8,2.5c-0.9,2.6,0.8,6.1,4.1,7.4
		c1.1,0.4,5.7,2,10.2,3.6C228.1,52.2,226.3,47.8,225.7,43.1z"/>
	<path class="st28" d="M234.6,55.3c-1.3-1.9-8.1-6.1-13.6-9.1c-0.8-0.4-1.7-0.4-2.5,0.2c-1.6,1.2-3.4,2.2-5.1,3.3
		c-0.7,0.5-1.1,1.3-1,2.1c0,0.2,0,0.4,0,0.6s-0.2,0.2-0.2,0.5c5.1,1.8,16.4,6,17,6.7c1.2,1.2,12,9.7,17.3,13.4
		c0.9-0.3,1.7-0.9,2.3-1.6C245.1,67.2,236.5,57.3,234.6,55.3z"/>
	<path class="st17" d="M211.8,22c6.4,6,20.2,6.6,29,6.3c0.4-0.1,0.8,0.2,0.8,0.6s-0.2,0.8-0.6,0.8l0,0c-10.3,2-24.1,2.5-32.5-3.8
		c-2.8-2.1,0.4-6.2,3.1-4.2L211.8,22z"/>
	<path class="st38" d="M217,24.8c-0.9-0.5-4.6-2.3-5.4-2.9l0,0l-0.2-0.1c-1.2-0.7-2.8-0.3-3.6,0.9c-0.7,1.2-0.4,2.7,0.7,3.4
		c1,0.7,2.1,1.3,3.2,1.8c0.7,0.3,1.5,0.7,2.3,1C215.1,27.5,216,26.1,217,24.8z"/>
	<path class="st19" d="M223.7,42.7l-11.5,10.2c-1.4-0.5-2.7-5.6-4.9-10.3c-2.4-5-5.3-10.5-6.8-13.4c-0.6-1.2-0.2-2.7,1-3.4l7.2-4.1
		c1.1-0.6,2.5-0.3,3.2,0.8c1.5,2.2,3.5,7.2,6.1,11S223.7,42.7,223.7,42.7z"/>
	<path class="st39" d="M208.8,21.7l-1.2,0.7c0.2,1.8-1.2,3.4-3,3.6c-0.8,0.1-1.6-0.2-2.2-0.6l-1.1,0.6c-1.1,0.6-1.5,2-0.9,3.1
		c1.5,2.9,4.4,8.5,6.9,13.6c2.2,4.7,3.4,9.5,4.9,10.3c5.1-3.5,11.6-7.2,12.2-10.4c0,0-8-11.8-12.6-20.1
		C211.2,21.3,209.8,21,208.8,21.7z"/>
	<path class="st17" d="M243,29.8c0,0-2,0.9-2.5,0.4c-0.5-0.5-0.7-1,0-1.7c0.9-0.7,1.9-1.3,3-1.6c0.9-0.2,1.8-0.1,2.7,0.2
		c0.6,0.5-1.1,0.8-1.9,0.9s-1.6,0.4-1.5,0.8s1.7,0,2,0.3S243,29.8,243,29.8z"/>
	<path class="st40" d="M200.2,15.9l2.3-0.4l0,0l1,5.3l0,0l-0.2,0c-1.2,0.2-2.3-0.6-2.6-1.7c0,0,0,0,0,0L200.2,15.9L200.2,15.9z"/>
	<polygon class="st19" points="207.2,23.9 203.5,25.4 203.1,25 203.3,20.2 206.3,20.1 	"/>
	<path class="st17" d="M206.3,20.1l-3,0.2l-0.1,1.9c0.7,0.7,1.7,1.1,2.8,1.1c0.3-0.1,0.6-0.2,0.9-0.5L206.3,20.1z"/>
	<path class="st19" d="M205.9,22.2L205.9,22.2c-2,0.4-3.8-0.9-4.2-2.9c0,0,0,0,0,0l-0.8-3.9l6.1-1.2c0.3,1.7,0.5,3.5,0.5,5.2
		C207.5,21.1,206.9,22,205.9,22.2z"/>
	<rect x="200.9" y="16.8" transform="matrix(0.9825 -0.186 0.186 0.9825 0.3349 37.7739)" class="st40" width="1.2" height="0.5"/>
	<path class="st19" d="M202.5,18.4c0.1,0.8-0.1,1.5-0.6,1.6c-0.4,0.1-1.1-0.8-1.3-1.6c-0.2-0.5,0.1-1,0.6-1.2c0.1,0,0.1,0,0.2,0
		C201.9,17.1,202.4,17.6,202.5,18.4z"/>
	<path class="st40" d="M207.7,15.8c0-0.5,0-1-0.2-1.5c0,0-0.3-1.8-1.1-2s-1.7,0.4-2.3,0.7c-0.7,0.2-1.4,0.3-2,0.4
		c-1.2,0.2-2,1.4-1.8,2.6c0,0,0,0,0,0l0.1,0.5l1.2,0.7l0.5,0.9h0.1c0.4-0.1,0.7-0.4,0.6-0.8c-0.1-0.6,0.3-1.2,0.9-1.4l1.8-0.3
		c1.1-0.2,1.8,0.3,2,1.1l0.1,0.7L207.7,15.8z"/>
	<line class="st41" x1="307.4" y1="1.5" x2="217.8" y2="39.9"/>
	<path class="st19" d="M209.9,32c2.9,1.6,6.2,2.5,9.5,2.7c5.6,0.7,15.6-2.7,14.6-2.4c0.4-0.1,0.8,0.1,0.9,0.5c0.1,0.3,0,0.7-0.4,0.9
		c-4.4,2.3-10.5,4.8-15.1,4.8H217c-7.8-0.3-14.2-4.3-17.1-8.4c-0.8-1.2-0.5-2.8,0.6-3.6c0,0,0,0,0,0C203.4,24.4,204.2,28.7,209.9,32
		z"/>
	<path class="st38" d="M207.8,30.4c-1.3-1.1-2.5-2.2-3.7-3.5V27l-1.4-1.1c0,0-1.5-0.6-3,1.3c-0.6,0.9-0.6,2.2,0.2,3.1
		c0.2,0.2,1,2.2,5.2,4.6C205.1,34.9,208.1,30.6,207.8,30.4z"/>
	<path class="st19" d="M235.6,31.4c0,0-2.1,0.4-2.2,1.1c-0.1,0.7,0,1.2,1,1.3c1.1,0.1,2.3,0,3.3-0.4c0.8-0.4,1.5-1,2.1-1.7
		c0.2-0.8-1.3,0-2,0.3c-0.7,0.3-1.6,0.7-1.6,0.2s1.4-0.9,1.5-1.4C237.6,30.4,235.6,31.4,235.6,31.4z"/>
	<path class="st6" d="M389.9,192.7c0,1.5-1.2,2.7-2.6,2.7c-1.5,0-2.7-1.2-2.7-2.6c0-1.5,1.2-2.7,2.6-2.7c0,0,0,0,0,0
		C388.7,190,389.9,191.2,389.9,192.7C389.9,192.6,389.9,192.6,389.9,192.7z"/>
	<path class="st6" d="M389.9,210.7c0,1.5-1.2,2.6-2.6,2.6c-1.5,0-2.6-1.2-2.6-2.6c0-1.5,1.2-2.6,2.6-2.6l0,0
		C388.7,208.1,389.9,209.3,389.9,210.7z"/>
	<path class="st5" d="M412.2,239.9c0.4,1,0.5,2.1,0.2,3.1c-0.5,1.7-0.1,3.7,1.1,5c0.1-1.1,0.4-2.2,0.7-3.3
		C414.6,243.7,414.4,240.5,412.2,239.9z"/>
	<path class="st42" d="M415.7,239.2c0,0-2.4,1.5-2.1,3.5c0,0-1.3-0.9-1.5-4C411.8,236.6,415.7,239.2,415.7,239.2z"/>
	<path class="st5" d="M428.7,248.6c-1.2-0.5-2.1-1.4-2.6-2.6c-0.7-1.9-2.1-3.4-3.9-4.2c-0.9-0.4-1.4-1.2-1.4-2.1h-2.4v1.8
		c-3.2,0.7-5.7,4-5.7,8c0,4.3,2.9,7.9,6.6,8.1c0.5,3.9,3.4,6.9,6.9,6.9c3.9,0,7-3.6,7-8.1C433.3,253,431.5,250.1,428.7,248.6z"/>
	<path class="st19" d="M415.1,251.7c0,0.2-0.1,0.4-0.1,0.6c0,0.2-0.1,0.3-0.1,0.5c-0.1,0.3-0.2,0.6-0.3,0.9
		c-0.2,0.6-0.5,1.2-0.8,1.8c-0.7,1.2-1.6,2.2-2.7,2.9c-0.6,0.3-1.2,0.6-1.8,0.9c-0.6,0.2-1.2,0.3-1.9,0.4c-0.6,0.1-1.2,0.1-1.8,0.1
		l-1.7-0.2c-2.1-0.5-4.1-1.3-6-2.3l-1.3-0.8c-0.4-0.2-0.9-0.5-1.3-0.8l-2.5-1.8c-0.3-0.2-0.4-0.7-0.2-1c0.2-0.3,0.6-0.4,0.9-0.2h0
		c1.8,0.8,3.5,1.6,5.4,2.2c1.7,0.6,3.5,1,5.3,1.1c1.5,0.1,2.9-0.3,4.1-1.2c0.5-0.4,0.8-1,1.1-1.6c0.1-0.3,0.2-0.7,0.3-1
		c0-0.2,0.1-0.3,0.1-0.5c0-0.1,0-0.2,0-0.2c0-0.1,0-0.2,0-0.1c0.1-1.4,1.4-2.5,2.8-2.4S415.2,250.3,415.1,251.7L415.1,251.7
		L415.1,251.7z"/>
	<path class="st19" d="M409.7,274c2.3,2.6,15.3,3.7,15.3,3.7c1-1.1-3.5-13.9-3.5-13.9s2.2-9.2,2.1-12.5c0-1.4-1.2-2.5-2.5-2.5h-8.3
		c-1.3,0-2.3,1-2.4,2.2c-0.2,2.6,3.2,12.5,3.2,12.5S407.8,271.7,409.7,274z"/>
	<path class="st17" d="M416.9,324.2c-0.1,0.2-0.1,0.4,0,0.5c0.1,0.2,0.2,0.3,0.4,0.4c1.6,0.7,2.2,0.5,3.2-0.2v-7.8l-1.5-2.3
		c-0.2-0.3-0.6-0.4-0.8-0.2c-0.2,0.1-0.3,0.4-0.3,0.6c0.5,3.2,0.9,8.2-0.6,8.5C417.1,323.7,417,324,416.9,324.2z"/>
	<path class="st43" d="M418.5,324.6c-0.6-0.1-1.1-0.4-1.4-0.8c-3.3,0.3-4.9,1.4-4.9,2.3c0.1,0.2,5.8,0,7.9,0c0.4,0,0.6-0.4,0.5-0.9
		l-0.2-1.3C419.9,324.5,419.2,324.7,418.5,324.6z"/>
	<path class="st19" d="M441,287.2c-6.3,1.7-16.9,5.2-18.6,6.1c-2.4,1.2-3.2,3.6-2.4,5s2.6,1.4,5.1,0.1c1.7-0.9,11.4-6.4,16.9-9.7
		C441.7,288,441.2,287.8,441,287.2z"/>
	<path class="st19" d="M446.6,287.8c0.2,0,0.4-0.1,0.5-0.2c0.1-0.1,0.2-0.3,0.2-0.5c-0.1-1.7-0.6-2.2-1.6-2.8
		c-2.5,1.5-5.2,2.8-7.9,3.9l0,0c-0.3,0.7,0,1.5,0.6,1.8c0.4,0.2,0.9,0.2,1.3,0c2.6-1.5,5.7-2.9,6.4-2.2L446.6,287.8z"/>
	<path class="st43" d="M446.2,286.2c0.2,0.5,0.1,1.1-0.1,1.6c1.7,2.8,3.4,3.7,4.2,3.3c0.1-0.2-2.5-5.2-3.5-7c-0.2-0.4-0.7-0.4-1-0.1
		l-1,0.7C445.5,284.9,446,285.5,446.2,286.2z"/>
	<path class="st17" d="M418.1,317.2c0.7,0.4,1.6,0.3,2.3,0.7c0.2-6.5,0-17.2-0.4-19.1c-0.5-2.7-2.1-4.6-3.7-4.4s-2.5,2.7-2,5.4
		C414.6,301.6,416.5,311,418.1,317.2z"/>
	<path class="st17" d="M410,276.2c0.2,3.6,3.4,26,6.2,25.8s4-22.8,3.8-26.4s-2.6-6.3-5.4-6.2S409.8,272.6,410,276.2z"/>
	<path class="st19" d="M414.2,275.3c0.1,3.6,4.1,23.9,6.8,23.8s3.8-20.5,3.7-24.1s-2.9-6.3-5.6-6.3S414.1,271.8,414.2,275.3z"/>
	<polygon class="st19" points="415.7,249.4 419.4,249 418.2,244.9 415.8,245.1 	"/>
	<path class="st17" d="M415.8,245.2l2.4-0.3l0.4,1.3c-0.5,0.6-1.2,1.9-2.1,1.9c-0.3,0-0.5-0.1-0.8-0.2L415.8,245.2z"/>
	<path class="st19" d="M415.7,247.1c1.1-0.1,2.2-0.7,2.9-1.5c0.7-0.6,1.1-1.5,1.2-2.4v-4h-6.2c-0.3,1.4-0.3,2.8,0,4.2
		C414,245.1,415.1,247.1,415.7,247.1z"/>
	<rect x="419" y="240.8" class="st5" width="1.2" height="0.5"/>
	<path class="st19" d="M418.8,242.5c0,0.8,0.4,1.4,0.8,1.4s1-1,1-1.8c0-0.5-0.3-1-0.8-1c-0.1,0-0.1,0-0.2,0
		C419.2,241.1,418.8,241.7,418.8,242.5z"/>
	<path class="st5" d="M418.4,237.4h-2.1c-0.6,0-1.1-0.1-1.6-0.4c-0.8-0.5-1.7-0.3-2.3,0.4c-0.5,0.7-0.7,1.7,0.6,2.6
		c0.7,0.5,1.7,0,2.4,0.2h2c0.6,0,1.1,0.5,1.1,1.2c0,0.4,0.4,0.7,0.8,0.7h0.1l0.3-1l1-0.9v-0.5C420.7,238.5,419.7,237.4,418.4,237.4
		C418.4,237.4,418.4,237.4,418.4,237.4z"/>
	<path class="st19" d="M391,253.9c0,0,2.1,0.6,2.5,0s0.6-1-0.3-1.6c-0.9-0.6-2-1-3.1-1.1c-0.9,0-1.8,0.2-2.6,0.5
		c-0.5,0.6,1.2,0.6,2,0.6s1.7,0.2,1.6,0.5s-1.6,0.2-1.9,0.6S391,253.9,391,253.9z"/>
	<path class="st6" d="M393.8,256c0,2.8-2.2,5-5,5s-5-2.2-5-5s2.2-5,5-5S393.8,253.2,393.8,256z"/>
	<path class="st19" d="M391,259.2c0,0,2.1-0.5,2.5,0s0.5,1-0.3,1.6c-1,0.6-2,1-3.2,1.1c-0.9,0-1.8-0.2-2.6-0.6
		c-0.5-0.6,1.2-0.6,2-0.6s1.7-0.1,1.6-0.5s-1.6-0.2-1.9-0.6S391,259.2,391,259.2z"/>
	<path class="st31" d="M422.1,264.6c-0.4-0.4-0.5-1-0.4-1.6c0.6-2.8,1.9-9.4,1.8-11.9c0-1.3-1.1-2.3-2.3-2.2H420
		c-0.7,1.7-2.7,2.4-4.4,1.6c-0.7-0.3-1.3-0.9-1.6-1.6h-1.1c1.1,2.5,0.9,5.4-0.7,7.6c-0.4,0.5-0.5,1.1-0.3,1.7c0.5,1.6,0.9,3,1.3,4.1
		c0.2,0.7,0.1,1.4-0.5,2c-3.5,3.5-5.9,11-5.9,19.7c0,0.7,0,1.5,0,2.2c0,1,0.9,1.8,1.9,1.8h17c1,0,1.9-0.8,1.9-1.8c0-0.7,0-1.5,0-2.2
		C427.6,275.5,425.4,268.3,422.1,264.6z"/>
	<path class="st44" d="M422.4,259.2c0.4-2.2,0.9-4.8,1-6.6c-1.5,4.5-5.5,7.7-10.2,8.2c1,0.4,2.5,1,3.8,1.4c2.1,0.8,4.5-0.3,5.2-2.4
		C422.3,259.6,422.4,259.4,422.4,259.2z"/>
	<path class="st5" d="M414,239.7c0.4,0.8,0.2,1.4,3.1,2.1s3.6-0.1,4.8,1.2c0,0-0.9-2.3-2.5-2.8s-4.3-0.4-5.5-2.1
		C413.8,238.6,413.9,239.1,414,239.7z"/>
	<path class="st19" d="M424.5,251.9c-0.1,0.5-0.3,1.1-0.5,1.6c-0.2,0.4-0.4,0.8-0.6,1.2c-0.2,0.4-0.5,0.7-0.7,1.1
		c-0.3,0.3-0.5,0.7-0.8,1c-0.6,0.6-1.2,1.1-1.9,1.6c-0.3,0.2-0.7,0.5-1,0.7l-1,0.6c-2.7,1.3-5.6,2.1-8.6,2.4
		c-2.8,0.2-5.7,0.2-8.5-0.1c-1.4-0.2-2.8-0.3-4.1-0.5s-2.7-0.5-4.1-0.8c-0.4-0.1-0.7-0.5-0.6-0.9c0.1-0.3,0.4-0.6,0.7-0.6l0,0
		c1.4,0,2.7,0,4.1,0s2.7-0.1,4-0.1l1,0l1-0.1l2-0.2c0.7-0.1,1.3-0.2,1.9-0.3c0.6-0.1,1.3-0.2,1.9-0.4c2.4-0.5,4.7-1.4,6.9-2.6
		l0.7-0.4l0.6-0.5c0.4-0.3,0.8-0.7,1.2-1.1c0.1-0.2,0.3-0.4,0.5-0.6s0.2-0.4,0.4-0.6s0.2-0.4,0.3-0.6l0.1-0.3v-0.1l0,0
		c0,0,0,0,0,0.1c0.2-1.4,1.5-2.4,2.9-2.2S424.7,250.5,424.5,251.9L424.5,251.9z"/>
	<circle class="st45" cx="310.5" cy="10.4" r="9.4"/>
	<circle class="st45" cx="310.5" cy="10.4" r="3.9"/>
</g>
</svg>
