<svg id="Camada_1" data-name="Camada 1" xmlns="http://www.w3.org/2000/svg" viewBox="0 0 71.98 63.62"><defs><style>.cls-1,.cls-2{fill:none;stroke:#c9c9c9;}.cls-1{stroke-miterlimit:10;stroke-width:0.76px;}.cls-2{stroke-miterlimit:10;stroke-width:0.76px;}</style></defs><path class="cls-1" d="M537.86,489v-2.77a3,3,0,0,0-3-3h-.1a3,3,0,0,1-2.81-2c-.17-.46-.35-.9-.55-1.34a3,3,0,0,1,.57-3.4l.07-.07a3,3,0,0,0,0-4.22l-2-2a3,3,0,0,0-4.21,0l-.07.08a3,3,0,0,1-3.41.57c-.43-.2-.88-.38-1.33-.55a3,3,0,0,1-2-2.81v-.11a3,3,0,0,0-3-3h-2.69a3,3,0,0,0-3,3v.11a3,3,0,0,1-2,2.81c-.45.17-.9.35-1.33.55a3,3,0,0,1-3.41-.57l-.07-.08a3,3,0,0,0-4.21,0l-2,2a3,3,0,0,0,0,4.22l.07.07a3,3,0,0,1,.57,3.4c-.2.44-.38.88-.55,1.34a3,3,0,0,1-2.81,2h-.1a3,3,0,0,0-3,3V489a3,3,0,0,0,3,3h.1a3,3,0,0,1,2.81,2c.17.45.35.89.55,1.33a3,3,0,0,1-.57,3.4l-.07.08a3,3,0,0,0,0,4.21l2,2a3,3,0,0,0,4.21,0l.07-.07a3,3,0,0,1,3.41-.58c.43.2.88.39,1.33.55a3,3,0,0,1,2,2.82v.1a3,3,0,0,0,3,3h2.77a3,3,0,0,0,3-3v-.1a3,3,0,0,1,2-2.82c.45-.16.9-.35,1.33-.55a3,3,0,0,1,3.41.58l.07.07a3,3,0,0,0,4.21,0l2-2a3,3,0,0,0,0-4.21l-.07-.08a3,3,0,0,1-.57-3.4c.2-.44.38-.88.55-1.33a3,3,0,0,1,2.81-2h.1A3,3,0,0,0,537.86,489Z" transform="translate(-466.26 -447.57)"/><circle class="cls-1" cx="48.46" cy="40.01" r="12.04"/><path class="cls-1" d="M498.78,467.28l.26-1.93a2.09,2.09,0,0,0-1.8-2.34h-.07a2.11,2.11,0,0,1-1.73-1.66c-.08-.33-.17-.66-.26-1a2.1,2.1,0,0,1,.71-2.31H496a2.07,2.07,0,0,0,.38-2.91h0l-1.18-1.55a2.1,2.1,0,0,0-2.93-.38h0a2.11,2.11,0,0,1-2.42.09c-.29-.18-.58-.35-.88-.51a2.11,2.11,0,0,1-1.13-2.14v-.07a2.08,2.08,0,0,0-1.79-2.34h0l-1.92-.25a2.09,2.09,0,0,0-2.35,1.79v.08a2.09,2.09,0,0,1-1.65,1.77c-.33.07-.65.16-1,.26a2.09,2.09,0,0,1-2.32-.72h0a2.1,2.1,0,0,0-2.93-.39h0l-1.54,1.18a2.09,2.09,0,0,0-.39,2.93h0v.06a2.12,2.12,0,0,1,.09,2.42q-.27.42-.51.87a2.08,2.08,0,0,1-2.14,1.13h-.07a2.08,2.08,0,0,0-2.34,1.79h0l-.26,1.92a2.09,2.09,0,0,0,1.79,2.35h0a2.13,2.13,0,0,1,1.77,1.65c.08.33.16.65.26,1a2.12,2.12,0,0,1-.71,2.31h-.06a2.1,2.1,0,0,0-.39,2.93l1.18,1.54a2.08,2.08,0,0,0,2.93.39h.06a2.14,2.14,0,0,1,2.42-.09c.28.18.58.35.88.51a2.15,2.15,0,0,1,1.13,2.14v.07a2.08,2.08,0,0,0,1.81,2.25l1.93.25a2.08,2.08,0,0,0,2.34-1.78v-.09a2.14,2.14,0,0,1,1.65-1.77c.33-.07.66-.16,1-.26a2.15,2.15,0,0,1,2.31.71v.06a2.08,2.08,0,0,0,2.93.39h0l1.56-1.14a2.1,2.1,0,0,0,.39-2.93v-.06a2.11,2.11,0,0,1-.08-2.42,9.34,9.34,0,0,0,.5-.87,2.12,2.12,0,0,1,2.11-1.09h.08a2.09,2.09,0,0,0,2.34-1.82Z" transform="translate(-466.26 -447.57)"/><circle class="cls-2" cx="16.56" cy="16.61" r="8.44"/></svg>