<svg id="Camada_1" data-name="Camada 1" xmlns="http://www.w3.org/2000/svg" viewBox="0 0 322.32 322.32"><defs><style>.cls-1{fill:#f6f6f6;}.cls-2{fill:#fff;}.cls-3{fill:#e0e0e0;}.cls-4{fill:#eadc1b;}</style></defs><circle class="cls-1" cx="161.16" cy="161.16" r="161.16"/><rect class="cls-2" x="58.91" y="94.45" width="204.51" height="133.43" rx="9.07"/><path class="cls-3" d="M254.34,95.45a8.09,8.09,0,0,1,8.08,8.07V218.8a8.09,8.09,0,0,1-8.08,8.08H68a8.08,8.08,0,0,1-8.07-8.08V103.52A8.08,8.08,0,0,1,68,95.45H254.34m0-2H68a10.07,10.07,0,0,0-10.07,10.07V218.8A10.07,10.07,0,0,0,68,228.88H254.34a10.08,10.08,0,0,0,10.08-10.08V103.52a10.07,10.07,0,0,0-10.08-10.07Z"/><circle class="cls-3" cx="161.16" cy="128.05" r="24.44"/><rect class="cls-3" x="125.51" y="157.13" width="71.3" height="3.59" rx="1.34"/><path class="cls-4" d="M116.24,181.71a.49.49,0,0,1-.69-.55l.77-4.37-3.26-3.11a.52.52,0,0,1,.27-.88l4.53-.64,2-4a.47.47,0,0,1,.85,0l2,4,4.53.64a.51.51,0,0,1,.26.88l-3.25,3.11.76,4.37a.49.49,0,0,1-.69.55l-4.06-2.09-4.06,2.09Z"/><path class="cls-4" d="M136.67,181.71a.49.49,0,0,1-.69-.55l.77-4.37-3.26-3.11a.52.52,0,0,1,.27-.88l4.52-.64,2-4a.48.48,0,0,1,.86,0l2,4,4.53.64a.51.51,0,0,1,.26.88l-3.26,3.11.77,4.37a.49.49,0,0,1-.69.55l-4.06-2.09-4.06,2.09Z"/><path class="cls-4" d="M157.1,181.71a.49.49,0,0,1-.69-.55l.77-4.37-3.26-3.11a.52.52,0,0,1,.26-.88l4.53-.64,2-4a.48.48,0,0,1,.86,0l2,4,4.53.64a.51.51,0,0,1,.26.88l-3.26,3.11.77,4.37a.49.49,0,0,1-.69.55l-4.06-2.09-4.06,2.09Z"/><path class="cls-4" d="M177.53,181.71a.49.49,0,0,1-.69-.55l.77-4.37-3.26-3.11a.52.52,0,0,1,.26-.88l4.53-.64,2-4a.48.48,0,0,1,.86,0l2,4,4.53.64a.51.51,0,0,1,.26.88l-3.26,3.11.77,4.37a.49.49,0,0,1-.69.55l-4.06-2.09-4.06,2.09Z"/><path class="cls-4" d="M198,181.71a.49.49,0,0,1-.69-.55l.77-4.37-3.26-3.11a.52.52,0,0,1,.26-.88l4.53-.64,2-4a.48.48,0,0,1,.86,0l2,4,4.53.64a.52.52,0,0,1,.26.88L206,176.79l.77,4.37a.49.49,0,0,1-.69.55L202,179.62,198,181.71Z"/><rect class="cls-3" x="80.44" y="188.94" width="161.45" height="3.59" rx="1.34"/><rect class="cls-3" x="80.44" y="199.15" width="161.45" height="3.59" rx="1.34"/><rect class="cls-3" x="80.44" y="209.37" width="112.9" height="3.59" rx="1.34"/></svg>