<svg id="Camada_1" data-name="Camada 1" xmlns="http://www.w3.org/2000/svg" viewBox="0 0 322.32 322.32"><defs><style>.cls-1{fill:#f6f6f6;}.cls-2{fill:#fff;}.cls-3{fill:#e0e0e0;}.cls-4{fill:#b2b2b2;}</style></defs><circle class="cls-1" cx="161.16" cy="161.16" r="161.16"/><rect class="cls-2" x="45.04" y="93.45" width="232.24" height="135.43" rx="10.07"/><path class="cls-3" d="M46,159.34V106.57A21.42,21.42,0,0,1,67.43,85.18H254.89a21.41,21.41,0,0,1,21.39,21.39v52.77Z"/><path class="cls-3" d="M254.89,86.18a20.41,20.41,0,0,1,20.39,20.39v51.77H47V106.57A20.42,20.42,0,0,1,67.43,86.18H254.89m0-2H67.43A22.39,22.39,0,0,0,45,106.57v53.77H277.28V106.57a22.39,22.39,0,0,0-22.39-22.39Z"/><circle class="cls-4" cx="151.73" cy="115.52" r="4.04"/><path class="cls-4" d="M143.64,106.09a4,4,0,0,0-4,4v24.26a4,4,0,0,0,4,4h35a4,4,0,0,0,4-4V110.13a4,4,0,0,0-4-4Zm35,2.7a1.35,1.35,0,0,1,1.35,1.34V126.3l-10.18-5.24a1.34,1.34,0,0,0-1.55.25l-10,10-7.17-4.78a1.36,1.36,0,0,0-1.7.17L142.3,133V110.13a1.34,1.34,0,0,1,1.34-1.34Z"/><rect class="cls-3" x="136.59" y="176.96" width="49.15" height="36.76" rx="2.68"/><path class="cls-3" d="M183.06,178a1.68,1.68,0,0,1,1.68,1.68v31.41a1.68,1.68,0,0,1-1.68,1.67h-43.8a1.67,1.67,0,0,1-1.67-1.67V179.64a1.68,1.68,0,0,1,1.67-1.68h43.8m0-2h-43.8a3.67,3.67,0,0,0-3.67,3.68v31.41a3.67,3.67,0,0,0,3.67,3.67h43.8a3.67,3.67,0,0,0,3.68-3.67V179.64a3.68,3.68,0,0,0-3.68-3.68Z"/><circle class="cls-4" cx="156.19" cy="191.79" r="2.13"/><path class="cls-4" d="M151.93,186.82A2.14,2.14,0,0,0,149.8,189v12.78a2.13,2.13,0,0,0,2.13,2.13h18.46a2.13,2.13,0,0,0,2.13-2.13V189a2.13,2.13,0,0,0-2.13-2.13Zm18.46,1.42a.71.71,0,0,1,.71.71v8.52l-5.36-2.76a.7.7,0,0,0-.82.13l-5.27,5.27-3.77-2.52a.71.71,0,0,0-.9.09L151.22,201V189a.71.71,0,0,1,.71-.71Z"/><rect class="cls-3" x="206.59" y="176.96" width="49.15" height="36.76" rx="2.68"/><path class="cls-3" d="M253.06,178a1.68,1.68,0,0,1,1.68,1.68v31.41a1.68,1.68,0,0,1-1.68,1.67h-43.8a1.67,1.67,0,0,1-1.67-1.67V179.64a1.68,1.68,0,0,1,1.67-1.68h43.8m0-2h-43.8a3.67,3.67,0,0,0-3.67,3.68v31.41a3.67,3.67,0,0,0,3.67,3.67h43.8a3.67,3.67,0,0,0,3.68-3.67V179.64a3.68,3.68,0,0,0-3.68-3.68Z"/><circle class="cls-4" cx="226.19" cy="191.79" r="2.13"/><path class="cls-4" d="M221.93,186.82A2.14,2.14,0,0,0,219.8,189v12.78a2.13,2.13,0,0,0,2.13,2.13h18.46a2.13,2.13,0,0,0,2.13-2.13V189a2.13,2.13,0,0,0-2.13-2.13Zm18.46,1.42a.71.71,0,0,1,.71.71v8.52l-5.36-2.76a.7.7,0,0,0-.82.13l-5.27,5.27-3.77-2.52a.71.71,0,0,0-.9.09L221.22,201V189a.71.71,0,0,1,.71-.71Z"/><rect class="cls-3" x="66.59" y="176.96" width="49.15" height="36.76" rx="2.68"/><path class="cls-3" d="M113.06,178a1.68,1.68,0,0,1,1.68,1.68v31.41a1.68,1.68,0,0,1-1.68,1.67H69.26a1.67,1.67,0,0,1-1.67-1.67V179.64A1.68,1.68,0,0,1,69.26,178h43.8m0-2H69.26a3.67,3.67,0,0,0-3.67,3.68v31.41a3.67,3.67,0,0,0,3.67,3.67h43.8a3.67,3.67,0,0,0,3.68-3.67V179.64a3.68,3.68,0,0,0-3.68-3.68Z"/><circle class="cls-4" cx="86.19" cy="191.79" r="2.13"/><path class="cls-4" d="M81.93,186.82A2.14,2.14,0,0,0,79.8,189v12.78a2.13,2.13,0,0,0,2.13,2.13h18.46a2.13,2.13,0,0,0,2.13-2.13V189a2.13,2.13,0,0,0-2.13-2.13Zm18.46,1.42a.71.71,0,0,1,.71.71v8.52l-5.36-2.76a.7.7,0,0,0-.82.13l-5.27,5.27-3.77-2.52a.71.71,0,0,0-.9.09L81.22,201V189a.71.71,0,0,1,.71-.71Z"/></svg>