<svg id="Camada_1" data-name="Camada 1" xmlns="http://www.w3.org/2000/svg" viewBox="0 0 322.32 322.32"><defs><style>.cls-1{fill:#f6f6f6;}.cls-2{fill:#fff;}.cls-3,.cls-5{fill:#cecccc;}.cls-4{fill:#e0e0e0;}.cls-5{fill-rule:evenodd;}</style></defs><circle class="cls-1" cx="161.16" cy="161.16" r="161.16"/><rect class="cls-2" x="45.04" y="93.45" width="232.24" height="135.43" rx="10.07"/><rect class="cls-3" x="85.51" y="125.39" width="71.3" height="4.77" rx="2.39"/><rect class="cls-4" x="165.51" y="125.98" width="71.3" height="3.59" rx="1.34"/><circle class="cls-4" cx="101.16" cy="172.5" r="24.44"/><circle class="cls-4" cx="161.16" cy="172.5" r="24.44"/><circle class="cls-4" cx="221.16" cy="172.5" r="24.44"/><path class="cls-5" d="M57.39,173a.67.67,0,0,1,0-1h0l8.17-8.15a.68.68,0,0,1,1,1l-7.69,7.67,7.69,7.66a.68.68,0,0,1-1,1Z"/><path class="cls-5" d="M264.94,172a.69.69,0,0,1,0,1h0l-8.17,8.15a.69.69,0,1,1-1-1l7.69-7.66-7.69-7.67a.68.68,0,1,1,1-1Z"/></svg>