<svg id="Camada_1" data-name="Camada 1" xmlns="http://www.w3.org/2000/svg" viewBox="0 0 322.32 322.32"><defs><style>.cls-1{fill:#f6f6f6;}.cls-2{fill:#e0e0e0;}.cls-3{fill:#9a9d9e;}</style></defs><circle class="cls-1" cx="161.16" cy="161.16" r="161.16"/><rect class="cls-2" x="58.91" y="94.45" width="204.51" height="133.43" rx="21.39"/><path class="cls-2" d="M242,95.45a20.41,20.41,0,0,1,20.39,20.39v90.65A20.42,20.42,0,0,1,242,226.88H80.3a20.42,20.42,0,0,1-20.39-20.39V115.84A20.41,20.41,0,0,1,80.3,95.45H242m0-2H80.3a22.38,22.38,0,0,0-22.39,22.39v90.65A22.39,22.39,0,0,0,80.3,228.88H242a22.4,22.4,0,0,0,22.39-22.39V115.84A22.39,22.39,0,0,0,242,93.45Z"/><path class="cls-3" d="M161.16,179A17.88,17.88,0,1,1,179,161.16,17.88,17.88,0,0,1,161.16,179Zm0,2.55a20.43,20.43,0,1,0-20.43-20.43A20.43,20.43,0,0,0,161.16,181.59Z"/><path class="cls-3" d="M156.75,153.64a1.26,1.26,0,0,1,1.32.1l8.94,6.38a1.27,1.27,0,0,1,.3,1.78,1.07,1.07,0,0,1-.3.3l-8.94,6.39a1.28,1.28,0,0,1-1.78-.3,1.33,1.33,0,0,1-.24-.74V154.78A1.28,1.28,0,0,1,156.75,153.64Z"/></svg>